<svg width="20" height="20" viewBox="0 0 20 20" fill="none" xmlns="http://www.w3.org/2000/svg">
<path fill-rule="evenodd" clip-rule="evenodd" d="M5.83301 10C5.83301 9.07957 6.5792 8.33337 7.49967 8.33337C8.42015 8.33337 9.16634 9.07957 9.16634 10C9.16634 10.9205 8.42015 11.6667 7.49967 11.6667C6.5792 11.6667 5.83301 10.9205 5.83301 10Z" fill="#9CA3AF"/>
<path fill-rule="evenodd" clip-rule="evenodd" d="M10.833 10C10.833 9.07957 11.5792 8.33337 12.4997 8.33337C13.4201 8.33337 14.1663 9.07957 14.1663 10C14.1663 10.9205 13.4201 11.6667 12.4997 11.6667C11.5792 11.6667 10.833 10.9205 10.833 10Z" fill="#9CA3AF"/>
<path fill-rule="evenodd" clip-rule="evenodd" d="M5.83301 4.16667C5.83301 3.24619 6.5792 2.5 7.49967 2.5C8.42015 2.5 9.16634 3.24619 9.16634 4.16667C9.16634 5.08714 8.42015 5.83333 7.49967 5.83333C6.5792 5.83333 5.83301 5.08714 5.83301 4.16667Z" fill="#9CA3AF"/>
<path fill-rule="evenodd" clip-rule="evenodd" d="M10.833 4.16667C10.833 3.24619 11.5792 2.5 12.4997 2.5C13.4201 2.5 14.1663 3.24619 14.1663 4.16667C14.1663 5.08714 13.4201 5.83333 12.4997 5.83333C11.5792 5.83333 10.833 5.08714 10.833 4.16667Z" fill="#9CA3AF"/>
<path fill-rule="evenodd" clip-rule="evenodd" d="M5.83301 15.8333C5.83301 14.9128 6.5792 14.1666 7.49967 14.1666C8.42015 14.1666 9.16634 14.9128 9.16634 15.8333C9.16634 16.7538 8.42015 17.5 7.49967 17.5C6.5792 17.5 5.83301 16.7538 5.83301 15.8333Z" fill="#9CA3AF"/>
<path fill-rule="evenodd" clip-rule="evenodd" d="M10.833 15.8333C10.833 14.9128 11.5792 14.1666 12.4997 14.1666C13.4201 14.1666 14.1663 14.9128 14.1663 15.8333C14.1663 16.7538 13.4201 17.5 12.4997 17.5C11.5792 17.5 10.833 16.7538 10.833 15.8333Z" fill="#9CA3AF"/>
</svg>
