<svg width="20" height="20" viewBox="0 0 20 20" fill="none" xmlns="http://www.w3.org/2000/svg">
<path d="M9.83366 10C9.83366 9.90799 9.90828 9.83337 10.0003 9.83337V11.8334C11.0128 11.8334 11.8337 11.0126 11.8337 10H9.83366ZM10.0003 9.83337C10.0924 9.83337 10.167 9.90799 10.167 10H8.16699C8.16699 11.0126 8.9878 11.8334 10.0003 11.8334V9.83337ZM10.167 10C10.167 10.0921 10.0924 10.1667 10.0003 10.1667V8.16671C8.9878 8.16671 8.16699 8.98752 8.16699 10H10.167ZM10.0003 10.1667C9.90828 10.1667 9.83366 10.0921 9.83366 10H11.8337C11.8337 8.98752 11.0128 8.16671 10.0003 8.16671V10.1667ZM9.83366 4.16671C9.83366 4.07466 9.90828 4.00004 10.0003 4.00004V6.00004C11.0128 6.00004 11.8337 5.17923 11.8337 4.16671H9.83366ZM10.0003 4.00004C10.0924 4.00004 10.167 4.07466 10.167 4.16671H8.16699C8.16699 5.17923 8.9878 6.00004 10.0003 6.00004V4.00004ZM10.167 4.16671C10.167 4.25875 10.0924 4.33337 10.0003 4.33337V2.33337C8.9878 2.33337 8.16699 3.15419 8.16699 4.16671H10.167ZM10.0003 4.33337C9.90828 4.33337 9.83366 4.25875 9.83366 4.16671H11.8337C11.8337 3.15419 11.0128 2.33337 10.0003 2.33337V4.33337ZM9.83366 15.8334C9.83366 15.7413 9.90828 15.6667 10.0003 15.6667V17.6667C11.0128 17.6667 11.8337 16.8459 11.8337 15.8334H9.83366ZM10.0003 15.6667C10.0924 15.6667 10.167 15.7413 10.167 15.8334H8.16699C8.16699 16.8459 8.9878 17.6667 10.0003 17.6667V15.6667ZM10.167 15.8334C10.167 15.9254 10.0924 16 10.0003 16V14C8.9878 14 8.16699 14.8209 8.16699 15.8334H10.167ZM10.0003 16C9.90828 16 9.83366 15.9254 9.83366 15.8334H11.8337C11.8337 14.8209 11.0128 14 10.0003 14V16Z" fill="#395E95"/>
</svg>
