<svg width="24" height="24" viewBox="0 0 24 24" fill="none" xmlns="http://www.w3.org/2000/svg">
<path d="M1 3V2C0.447715 2 0 2.44772 0 3H1ZM16 3H17C17 2.44772 16.5523 2 16 2V3ZM1 16H0C0 16.5523 0.447715 17 1 17L1 16ZM16 8V7C15.4477 7 15 7.44772 15 8H16ZM20 8L20.7071 7.29289C20.5196 7.10536 20.2652 7 20 7V8ZM23 11H24C24 10.7348 23.8946 10.4804 23.7071 10.2929L23 11ZM23 16V17C23.5523 17 24 16.5523 24 16H23ZM1 4H16V2H1V4ZM15 3V16H17V3H15ZM16 15H1V17H16V15ZM2 16V3H0V16H2ZM16 9H20V7H16V9ZM19.2929 8.70711L22.2929 11.7071L23.7071 10.2929L20.7071 7.29289L19.2929 8.70711ZM22 11V16H24V11H22ZM23 15H16V17H23V15ZM17 16V8H15V16H17ZM7 18.5C7 19.3284 6.32843 20 5.5 20V22C7.433 22 9 20.433 9 18.5H7ZM5.5 20C4.67157 20 4 19.3284 4 18.5H2C2 20.433 3.567 22 5.5 22V20ZM4 18.5C4 17.6716 4.67157 17 5.5 17V15C3.567 15 2 16.567 2 18.5H4ZM5.5 17C6.32843 17 7 17.6716 7 18.5H9C9 16.567 7.433 15 5.5 15V17ZM20 18.5C20 19.3284 19.3284 20 18.5 20V22C20.433 22 22 20.433 22 18.5H20ZM18.5 20C17.6716 20 17 19.3284 17 18.5H15C15 20.433 16.567 22 18.5 22V20ZM17 18.5C17 17.6716 17.6716 17 18.5 17V15C16.567 15 15 16.567 15 18.5H17ZM18.5 17C19.3284 17 20 17.6716 20 18.5H22C22 16.567 20.433 15 18.5 15V17Z" fill="#395E95"/>
</svg>
