<svg width="24" height="24" viewBox="0 0 24 24" fill="none" xmlns="http://www.w3.org/2000/svg">
<path d="M15 21C15 21.5523 15.4477 22 16 22C16.5523 22 17 21.5523 17 21H15ZM14 3V2V3ZM10 3V2V3ZM8 5H7H8ZM7 21C7 21.5523 7.44772 22 8 22C8.55228 22 9 21.5523 9 21H7ZM4 8H20V6H4V8ZM20 8C20.5523 8 21 8.44771 21 9H23C23 7.34315 21.6569 6 20 6V8ZM21 9V19H23V9H21ZM21 19C21 19.5523 20.5523 20 20 20V22C21.6569 22 23 20.6569 23 19H21ZM20 20H4V22H20V20ZM4 20C3.44772 20 3 19.5523 3 19H1C1 20.6569 2.34315 22 4 22V20ZM3 19V9H1V19H3ZM3 9C3 8.44772 3.44772 8 4 8V6C2.34315 6 1 7.34315 1 9H3ZM17 21V5H15V21H17ZM17 5C17 4.20435 16.6839 3.44129 16.1213 2.87868L14.7071 4.29289C14.8946 4.48043 15 4.73478 15 5H17ZM16.1213 2.87868C15.5587 2.31607 14.7956 2 14 2V4C14.2652 4 14.5196 4.10536 14.7071 4.29289L16.1213 2.87868ZM14 2H10V4H14V2ZM10 2C9.20435 2 8.44129 2.31607 7.87868 2.87868L9.29289 4.29289C9.48043 4.10536 9.73478 4 10 4V2ZM7.87868 2.87868C7.31607 3.44129 7 4.20435 7 5H9C9 4.73478 9.10536 4.48043 9.29289 4.29289L7.87868 2.87868ZM7 5V21H9V5H7Z" fill="#395E95"/>
</svg>
