<svg width="20" height="20" viewBox="0 0 20 20" fill="none" xmlns="http://www.w3.org/2000/svg">
<g clip-path="url(#clip0_1872_6496)">
<path d="M0.833008 10L-0.0614194 9.55283C-0.202183 9.83435 -0.202183 10.1657 -0.0614194 10.4473L0.833008 10ZM19.1663 10L20.0608 10.4473C20.2015 10.1657 20.2015 9.83435 20.0608 9.55283L19.1663 10ZM0.833008 10C1.72743 10.4473 1.72729 10.4475 1.72717 10.4478C1.72714 10.4478 1.72703 10.4481 1.72697 10.4482C1.72687 10.4484 1.72682 10.4485 1.72681 10.4485C1.7268 10.4485 1.72699 10.4481 1.72738 10.4474C1.72816 10.4458 1.72973 10.4427 1.7321 10.4381C1.73683 10.4289 1.74472 10.4137 1.75574 10.3929C1.7778 10.3512 1.81236 10.2871 1.85921 10.2038C1.95297 10.0371 2.0955 9.79436 2.28503 9.5009C2.66532 8.91206 3.22826 8.12944 3.95838 7.35065C5.43686 5.7736 7.48251 4.33337 9.99967 4.33337V2.33337C6.6835 2.33337 4.14582 4.22648 2.4993 5.98277C1.66693 6.87064 1.03195 7.75469 0.604948 8.41585C0.390827 8.74739 0.227367 9.02543 0.116055 9.22332C0.0603606 9.32233 0.0176085 9.40148 -0.0120106 9.45745C-0.0268235 9.48545 -0.0383621 9.50766 -0.0466023 9.52369C-0.0507228 9.5317 -0.0540196 9.53817 -0.0564898 9.54305C-0.057725 9.54548 -0.0587536 9.54752 -0.0595753 9.54915C-0.0599861 9.54997 -0.0603452 9.55068 -0.0606526 9.5513C-0.0608062 9.5516 -0.0609982 9.55199 -0.0610749 9.55214C-0.0612535 9.5525 -0.0614194 9.55283 0.833008 10ZM9.99967 4.33337C12.5168 4.33337 14.5625 5.7736 16.041 7.35065C16.7711 8.12944 17.334 8.91206 17.7143 9.5009C17.9038 9.79436 18.0464 10.0371 18.1401 10.2038C18.187 10.2871 18.2215 10.3512 18.2436 10.3929C18.2546 10.4137 18.2625 10.4289 18.2672 10.4381C18.2696 10.4427 18.2712 10.4458 18.272 10.4474C18.2724 10.4481 18.2725 10.4485 18.2725 10.4485C18.2725 10.4485 18.2725 10.4484 18.2724 10.4482C18.2723 10.4481 18.2722 10.4478 18.2722 10.4478C18.2721 10.4475 18.2719 10.4473 19.1663 10C20.0608 9.55283 20.0606 9.5525 20.0604 9.55214C20.0603 9.55199 20.0602 9.5516 20.06 9.5513C20.0597 9.55068 20.0593 9.54997 20.0589 9.54915C20.0581 9.54752 20.0571 9.54548 20.0558 9.54305C20.0534 9.53817 20.0501 9.5317 20.0459 9.52369C20.0377 9.50766 20.0262 9.48545 20.0114 9.45745C19.9817 9.40148 19.939 9.32233 19.8833 9.22332C19.772 9.02543 19.6085 8.74739 19.3944 8.41585C18.9674 7.75469 18.3324 6.87064 17.5 5.98277C15.8535 4.22648 13.3158 2.33337 9.99967 2.33337V4.33337ZM19.1663 10C18.2719 9.55283 18.2721 9.55255 18.2722 9.55229C18.2722 9.55224 18.2723 9.55201 18.2724 9.55191C18.2725 9.5517 18.2725 9.55159 18.2725 9.55158C18.2725 9.55156 18.2724 9.55194 18.272 9.55271C18.2712 9.55425 18.2696 9.55734 18.2672 9.56194C18.2625 9.57114 18.2546 9.58636 18.2436 9.60719C18.2215 9.64888 18.187 9.71296 18.1401 9.79624C18.0464 9.96293 17.9038 10.2057 17.7143 10.4992C17.334 11.088 16.7711 11.8706 16.041 12.6494C14.5625 14.2265 12.5168 15.6667 9.99967 15.6667V17.6667C13.3158 17.6667 15.8535 15.7736 17.5 14.0173C18.3324 13.1294 18.9674 12.2454 19.3944 11.5842C19.6085 11.2527 19.772 10.9746 19.8833 10.7768C19.939 10.6777 19.9817 10.5986 20.0114 10.5426C20.0262 10.5146 20.0377 10.4924 20.0459 10.4764C20.0501 10.4684 20.0534 10.4619 20.0558 10.457C20.0571 10.4546 20.0581 10.4526 20.0589 10.4509C20.0593 10.4501 20.0597 10.4494 20.06 10.4488C20.0602 10.4485 20.0603 10.4481 20.0604 10.4479C20.0606 10.4476 20.0608 10.4473 19.1663 10ZM9.99967 15.6667C7.48251 15.6667 5.43686 14.2265 3.95838 12.6494C3.22826 11.8706 2.66532 11.088 2.28503 10.4992C2.0955 10.2057 1.95297 9.96293 1.85921 9.79624C1.81236 9.71296 1.7778 9.64888 1.75574 9.60719C1.74472 9.58636 1.73683 9.57114 1.7321 9.56194C1.72973 9.55734 1.72816 9.55425 1.72738 9.55271C1.72699 9.55194 1.7268 9.55156 1.72681 9.55158C1.72682 9.55159 1.72687 9.5517 1.72697 9.55191C1.72703 9.55201 1.72714 9.55224 1.72717 9.55229C1.72729 9.55255 1.72743 9.55283 0.833008 10C-0.0614194 10.4473 -0.0612535 10.4476 -0.0610749 10.4479C-0.0609982 10.4481 -0.0608062 10.4485 -0.0606526 10.4488C-0.0603452 10.4494 -0.0599861 10.4501 -0.0595753 10.4509C-0.0587536 10.4526 -0.057725 10.4546 -0.0564898 10.457C-0.0540196 10.4619 -0.0507228 10.4684 -0.0466023 10.4764C-0.0383621 10.4924 -0.0268235 10.5146 -0.0120106 10.5426C0.0176085 10.5986 0.0603606 10.6777 0.116055 10.7768C0.227367 10.9746 0.390827 11.2527 0.604948 11.5842C1.03195 12.2454 1.66693 13.1294 2.4993 14.0173C4.14582 15.7736 6.6835 17.6667 9.99967 17.6667V15.6667ZM11.4997 10C11.4997 10.8285 10.8281 11.5 9.99967 11.5V13.5C11.9327 13.5 13.4997 11.933 13.4997 10H11.4997ZM9.99967 11.5C9.17125 11.5 8.49967 10.8285 8.49967 10H6.49967C6.49967 11.933 8.06668 13.5 9.99967 13.5V11.5ZM8.49967 10C8.49967 9.17161 9.17125 8.50004 9.99967 8.50004V6.50004C8.06668 6.50004 6.49967 8.06704 6.49967 10H8.49967ZM9.99967 8.50004C10.8281 8.50004 11.4997 9.17161 11.4997 10H13.4997C13.4997 8.06704 11.9327 6.50004 9.99967 6.50004V8.50004Z" fill="#395E95"/>
</g>
<defs>
<clipPath id="clip0_1872_6496">
<rect width="20" height="20" fill="white"/>
</clipPath>
</defs>
</svg>
