<svg width="16" height="17" viewBox="0 0 16 17" fill="none" xmlns="http://www.w3.org/2000/svg">
<path fill-rule="evenodd" clip-rule="evenodd" d="M8.00033 2.50001C4.68662 2.50001 2.00033 5.1863 2.00033 8.5C2.00033 11.8137 4.68662 14.5 8.00033 14.5C11.314 14.5 14.0003 11.8137 14.0003 8.5C14.0003 5.1863 11.314 2.50001 8.00033 2.50001ZM0.666992 8.5C0.666992 4.44992 3.95024 1.16667 8.00033 1.16667C12.0504 1.16667 15.3337 4.44992 15.3337 8.5C15.3337 12.5501 12.0504 15.8333 8.00033 15.8333C3.95024 15.8333 0.666992 12.5501 0.666992 8.5ZM8.1724 5.84957C7.86205 5.79633 7.54288 5.85465 7.27141 6.0142C6.99995 6.17374 6.7937 6.42421 6.68921 6.72125C6.56703 7.06857 6.18642 7.25109 5.83909 7.12891C5.49177 7.00673 5.30925 6.62612 5.43143 6.27879C5.64041 5.68472 6.0529 5.18377 6.59584 4.86469C7.13877 4.5456 7.77712 4.42896 8.39781 4.53542C9.01851 4.64189 9.58149 4.96459 9.98706 5.44637C10.3925 5.92805 10.6145 6.53767 10.6137 7.16729C10.6134 8.18753 9.85695 8.86128 9.31679 9.22139C9.02637 9.415 8.74069 9.55736 8.53025 9.65089C8.42408 9.69808 8.33468 9.73389 8.27026 9.75843C8.23799 9.77072 8.21183 9.78025 8.19279 9.78702L8.16963 9.79513L8.16226 9.79764L8.15966 9.79852L8.15864 9.79886C8.15864 9.79886 8.16963 9.79513 8.15781 9.79914C7.80851 9.91557 7.43096 9.7268 7.31453 9.37751C7.19818 9.02844 7.38662 8.65117 7.73547 8.53446L7.74611 8.53073C7.75636 8.52708 7.77317 8.52099 7.7956 8.51244C7.84055 8.49532 7.9074 8.46863 7.98873 8.43248C8.15329 8.35934 8.36761 8.25171 8.57719 8.11199C9.03692 7.8055 9.28032 7.47944 9.28032 7.16669V7.16569C9.28079 6.85081 9.16981 6.54593 8.96702 6.30504C8.76424 6.06415 8.48275 5.9028 8.1724 5.84957ZM8.00033 11.1667C7.63214 11.1667 7.33366 11.4651 7.33366 11.8333C7.33366 12.2015 7.63214 12.5 8.00033 12.5H8.00699C8.37518 12.5 8.67366 12.2015 8.67366 11.8333C8.67366 11.4651 8.37518 11.1667 8.00699 11.1667H8.00033Z" fill="#E5E7EB"/>
</svg>
