<svg width="20" height="20" viewBox="0 0 20 20" fill="none" xmlns="http://www.w3.org/2000/svg">
<path d="M10.0003 10.8333L9.42686 11.6526C9.77118 11.8936 10.2295 11.8936 10.5738 11.6526L10.0003 10.8333ZM3.33366 4.33334H16.667V2.33334H3.33366V4.33334ZM16.667 4.33334C17.0314 4.33334 17.3337 4.63563 17.3337 5.00001H19.3337C19.3337 3.53106 18.1359 2.33334 16.667 2.33334V4.33334ZM17.3337 5.00001V15H19.3337V5.00001H17.3337ZM17.3337 15C17.3337 15.3644 17.0314 15.6667 16.667 15.6667V17.6667C18.1359 17.6667 19.3337 16.469 19.3337 15H17.3337ZM16.667 15.6667H3.33366V17.6667H16.667V15.6667ZM3.33366 15.6667C2.96928 15.6667 2.66699 15.3644 2.66699 15H0.666992C0.666992 16.469 1.86471 17.6667 3.33366 17.6667V15.6667ZM2.66699 15V5.00001H0.666992V15H2.66699ZM2.66699 5.00001C2.66699 4.63563 2.96928 4.33334 3.33366 4.33334V2.33334C1.86471 2.33334 0.666992 3.53106 0.666992 5.00001H2.66699ZM17.7602 4.18078L9.42686 10.0141L10.5738 11.6526L18.9071 5.81924L17.7602 4.18078ZM10.5738 10.0141L2.24045 4.18078L1.09353 5.81924L9.42686 11.6526L10.5738 10.0141Z" fill="#395E95"/>
</svg>
