<svg width="20" height="20" viewBox="0 0 20 20" fill="none" xmlns="http://www.w3.org/2000/svg">
<path d="M2.5 3.99996C1.94772 3.99996 1.5 4.44767 1.5 4.99996C1.5 5.55224 1.94772 5.99996 2.5 5.99996V3.99996ZM17.5 5.99996C18.0523 5.99996 18.5 5.55224 18.5 4.99996C18.5 4.44767 18.0523 3.99996 17.5 3.99996V5.99996ZM15.8333 4.99996H16.8333C16.8333 4.44767 16.3856 3.99996 15.8333 3.99996V4.99996ZM4.16667 16.6666H3.16667H4.16667ZM5.66667 4.99996C5.66667 5.55224 6.11438 5.99996 6.66667 5.99996C7.21895 5.99996 7.66667 5.55224 7.66667 4.99996H5.66667ZM8.33333 1.66663V0.666626V1.66663ZM11.6667 1.66663V0.666626V1.66663ZM12.3333 4.99996C12.3333 5.55224 12.781 5.99996 13.3333 5.99996C13.8856 5.99996 14.3333 5.55224 14.3333 4.99996H12.3333ZM9.33333 9.16663C9.33333 8.61434 8.88562 8.16663 8.33333 8.16663C7.78105 8.16663 7.33333 8.61434 7.33333 9.16663H9.33333ZM7.33333 14.1666C7.33333 14.7189 7.78105 15.1666 8.33333 15.1666C8.88562 15.1666 9.33333 14.7189 9.33333 14.1666H7.33333ZM12.6667 9.16663C12.6667 8.61434 12.219 8.16663 11.6667 8.16663C11.1144 8.16663 10.6667 8.61434 10.6667 9.16663H12.6667ZM10.6667 14.1666C10.6667 14.7189 11.1144 15.1666 11.6667 15.1666C12.219 15.1666 12.6667 14.7189 12.6667 14.1666H10.6667ZM2.5 5.99996H4.16667V3.99996H2.5V5.99996ZM4.16667 5.99996H17.5V3.99996H4.16667V5.99996ZM14.8333 4.99996V16.6666H16.8333V4.99996H14.8333ZM14.8333 16.6666C14.8333 16.8434 14.7631 17.013 14.6381 17.138L16.0523 18.5522C16.5524 18.0521 16.8333 17.3739 16.8333 16.6666H14.8333ZM14.6381 17.138C14.513 17.2631 14.3435 17.3333 14.1667 17.3333V19.3333C14.8739 19.3333 15.5522 19.0523 16.0523 18.5522L14.6381 17.138ZM14.1667 17.3333H5.83333V19.3333H14.1667V17.3333ZM5.83333 17.3333C5.65652 17.3333 5.48695 17.2631 5.36193 17.138L3.94772 18.5522C4.44781 19.0523 5.12609 19.3333 5.83333 19.3333V17.3333ZM5.36193 17.138C5.2369 17.013 5.16667 16.8434 5.16667 16.6666H3.16667C3.16667 17.3739 3.44762 18.0521 3.94772 18.5522L5.36193 17.138ZM5.16667 16.6666V4.99996H3.16667V16.6666H5.16667ZM4.16667 5.99996H15.8333V3.99996H4.16667V5.99996ZM7.66667 4.99996V3.33329H5.66667V4.99996H7.66667ZM7.66667 3.33329C7.66667 3.15648 7.7369 2.98691 7.86193 2.86189L6.44772 1.44767C5.94762 1.94777 5.66667 2.62605 5.66667 3.33329H7.66667ZM7.86193 2.86189C7.98695 2.73686 8.15652 2.66663 8.33333 2.66663V0.666626C7.62609 0.666626 6.94781 0.947578 6.44772 1.44767L7.86193 2.86189ZM8.33333 2.66663H11.6667V0.666626H8.33333V2.66663ZM11.6667 2.66663C11.8435 2.66663 12.013 2.73686 12.1381 2.86189L13.5523 1.44767C13.0522 0.947578 12.3739 0.666626 11.6667 0.666626V2.66663ZM12.1381 2.86189C12.2631 2.98691 12.3333 3.15648 12.3333 3.33329H14.3333C14.3333 2.62605 14.0524 1.94777 13.5523 1.44767L12.1381 2.86189ZM12.3333 3.33329V4.99996H14.3333V3.33329H12.3333ZM7.33333 9.16663V14.1666H9.33333V9.16663H7.33333ZM10.6667 9.16663V14.1666H12.6667V9.16663H10.6667Z" fill="#395E95"/>
</svg>
