<svg width="20" height="20" viewBox="0 0 20 20" fill="none" xmlns="http://www.w3.org/2000/svg">
<g clip-path="url(#clip0_1972_6753)">
<path d="M13.1663 17.5C13.1663 18.0523 13.6141 18.5 14.1663 18.5C14.7186 18.5 15.1663 18.0523 15.1663 17.5H13.1663ZM10.833 12.5V11.5V12.5ZM4.16634 12.5V11.5V12.5ZM0.833008 15.8333H-0.166992H0.833008ZM-0.166992 17.5C-0.166992 18.0523 0.280723 18.5 0.833008 18.5C1.38529 18.5 1.83301 18.0523 1.83301 17.5H-0.166992ZM18.1663 17.5C18.1663 18.0523 18.6141 18.5 19.1663 18.5C19.7186 18.5 20.1663 18.0523 20.1663 17.5H18.1663ZM19.1663 15.8333H20.1663V15.8326L19.1663 15.8333ZM16.9163 11.6401C16.3816 11.502 15.8362 11.8236 15.6981 12.3583C15.56 12.8931 15.8816 13.4385 16.4163 13.5766L16.9163 11.6401ZM13.581 1.63958C13.046 1.5026 12.5012 1.82527 12.3643 2.36029C12.2273 2.89532 12.5499 3.4401 13.085 3.57708L13.581 1.63958ZM15.8395 5.8375H16.8395H15.8395ZM13.085 8.09792C12.5499 8.2349 12.2273 8.77968 12.3643 9.31471C12.5012 9.84973 13.046 10.1724 13.581 10.0354L13.085 8.09792ZM15.1663 17.5V15.8333H13.1663V17.5H15.1663ZM15.1663 15.8333C15.1663 14.6841 14.7098 13.5819 13.8971 12.7692L12.4829 14.1834C12.9205 14.621 13.1663 15.2145 13.1663 15.8333H15.1663ZM13.8971 12.7692C13.0845 11.9565 11.9823 11.5 10.833 11.5V13.5C11.4518 13.5 12.0453 13.7458 12.4829 14.1834L13.8971 12.7692ZM10.833 11.5H4.16634V13.5H10.833V11.5ZM4.16634 11.5C3.01707 11.5 1.91487 11.9565 1.10221 12.7692L2.51643 14.1834C2.95401 13.7458 3.5475 13.5 4.16634 13.5V11.5ZM1.10221 12.7692C0.289554 13.5819 -0.166992 14.6841 -0.166992 15.8333H1.83301C1.83301 15.2145 2.07884 14.621 2.51643 14.1834L1.10221 12.7692ZM-0.166992 15.8333V17.5H1.83301V15.8333H-0.166992ZM9.83301 5.83333C9.83301 7.122 8.78834 8.16667 7.49967 8.16667V10.1667C9.89291 10.1667 11.833 8.22657 11.833 5.83333H9.83301ZM7.49967 8.16667C6.21101 8.16667 5.16634 7.122 5.16634 5.83333H3.16634C3.16634 8.22657 5.10644 10.1667 7.49967 10.1667V8.16667ZM5.16634 5.83333C5.16634 4.54467 6.21101 3.5 7.49967 3.5V1.5C5.10644 1.5 3.16634 3.4401 3.16634 5.83333H5.16634ZM7.49967 3.5C8.78834 3.5 9.83301 4.54467 9.83301 5.83333H11.833C11.833 3.4401 9.89291 1.5 7.49967 1.5V3.5ZM20.1663 17.5V15.8333H18.1663V17.5H20.1663ZM20.1663 15.8326C20.1656 14.8725 19.8461 13.9398 19.2578 13.1809L17.6771 14.4063C17.9939 14.8149 18.166 15.3171 18.1663 15.8341L20.1663 15.8326ZM19.2578 13.1809C18.6696 12.4221 17.846 11.8801 16.9163 11.6401L16.4163 13.5766C16.9169 13.7058 17.3604 13.9977 17.6771 14.4063L19.2578 13.1809ZM13.085 3.57708C13.5869 3.70559 14.0317 3.99749 14.3494 4.40676L15.9293 3.18042C15.3393 2.42034 14.5132 1.87824 13.581 1.63958L13.085 3.57708ZM14.3494 4.40676C14.6671 4.81604 14.8395 5.3194 14.8395 5.8375H16.8395C16.8395 4.87531 16.5193 3.9405 15.9293 3.18042L14.3494 4.40676ZM14.8395 5.8375C14.8395 6.3556 14.6671 6.85896 14.3494 7.26824L15.9293 8.49458C16.5193 7.7345 16.8395 6.79969 16.8395 5.8375H14.8395ZM14.3494 7.26824C14.0317 7.67751 13.5869 7.96941 13.085 8.09792L13.581 10.0354C14.5132 9.79676 15.3393 9.25466 15.9293 8.49458L14.3494 7.26824Z" fill="#395E95"/>
</g>
<defs>
<clipPath id="clip0_1972_6753">
<rect width="20" height="20" fill="white"/>
</clipPath>
</defs>
</svg>
