<svg width="64" height="64" viewBox="0 0 64 64" fill="none" xmlns="http://www.w3.org/2000/svg">
<g clip-path="url(#clip0_1962_4806)">
<path d="M59.354 15.4625C54.9364 8.14892 47.9354 2.99247 39.6398 0.945244C31.3454 -1.10299 22.7481 0.202126 15.4346 4.61971L16.5371 6.44519C23.3622 2.32298 31.3848 1.10524 39.1281 3.01597C46.8713 4.92783 53.4053 9.73991 57.5275 16.5661C64.2056 27.6244 63.0412 41.6415 54.6283 51.4448L56.2469 52.8341C65.2611 42.3292 66.5097 27.312 59.354 15.4625Z" fill="#395E95"/>
<path d="M50.5105 55.4091C44.2601 60.3619 36.456 62.5829 28.5326 61.6649C20.6113 60.7468 13.5217 56.7984 8.56891 50.548C-0.622249 38.9481 0.147493 22.1214 10.3581 11.4075L8.81516 9.93604C-2.12686 21.4154 -2.9511 39.4439 6.89693 51.8722C12.2037 58.5694 19.7998 62.7994 28.2873 63.7835C29.5402 63.9285 30.7898 64 32.0332 64C39.207 64 46.127 61.603 51.8347 57.0809L50.5105 55.4091Z" fill="#395E95"/>
<path d="M33.0461 49.0595H30.9136V61.7269H33.0461V49.0595Z" fill="#395E95"/>
<path d="M33.0461 17.0715H30.9136V30.933H33.0461V17.0715Z" fill="#395E95"/>
<path d="M33.0461 1.0775H30.9136V9.60775H33.0461V1.0775Z" fill="#395E95"/>
<path d="M62.9016 30.933H47.9739V33.0654H62.9016V30.933Z" fill="#395E95"/>
<path d="M29.8474 30.933H25.5823V33.0655H29.8474V30.933Z" fill="#395E95"/>
<path d="M18.1183 30.933H1.05811V33.0654H18.1183V30.933Z" fill="#395E95"/>
<path d="M58.6365 14.939H38.3774V17.0715H58.6365V14.939Z" fill="#395E95"/>
<path d="M31.9787 14.939H4.99146V17.0715H31.9787V14.939Z" fill="#395E95"/>
<path d="M58.967 46.9269H52.2388V49.0594H58.967V46.9269Z" fill="#395E95"/>
<path d="M31.9798 46.9269H30.9136V49.0594H31.9798V46.9269Z" fill="#395E95"/>
<path d="M30.9135 46.9269H6.3894V49.0594H30.9135V46.9269Z" fill="#395E95"/>
<path d="M23.3824 2.81872L21.5538 1.72148C10.3431 20.396 10.3431 43.5979 21.5538 62.2736L23.3824 61.1754C12.578 43.1779 12.578 20.8163 23.3824 2.81872Z" fill="#395E95"/>
<path d="M45.5374 50.8359C44.2685 54.4281 42.6286 57.9074 40.6624 61.1755L42.4889 62.2749C44.5307 58.883 46.2326 55.2738 47.5494 51.546L45.5374 50.8359Z" fill="#395E95"/>
<path d="M42.491 1.72162L40.6624 2.81986C45.9563 11.6315 48.7531 21.7215 48.7521 31.9982H50.8846C50.8856 21.3344 47.9833 10.8648 42.491 1.72162Z" fill="#395E95"/>
<path d="M39.4438 26.6669C32.3884 26.6669 26.6487 32.4066 26.6487 39.462C26.6487 46.5174 32.3884 52.2571 39.4438 52.2571C46.4992 52.2571 52.2389 46.5174 52.2389 39.462C52.2389 32.4066 46.4992 26.6669 39.4438 26.6669ZM39.4438 50.1246C33.5644 50.1246 28.7812 45.3414 28.7812 39.462C28.7812 33.5826 33.5634 28.7993 39.4438 28.7993C45.3233 28.7993 50.1065 33.5827 50.1065 39.462C50.1065 45.3414 45.3231 50.1246 39.4438 50.1246Z" fill="#395E95"/>
<path d="M33.0461 39.462H30.9136C30.9136 44.1654 34.7404 47.9923 39.4438 47.9923H39.445V45.8598C35.9166 45.8596 33.0461 42.9904 33.0461 39.462Z" fill="#395E95"/>
<path d="M40.6613 31.0183L40.3574 33.1284C43.4838 33.5784 45.8413 36.3017 45.8413 39.4621H47.9738C47.9738 35.2482 44.8304 31.6186 40.6613 31.0183Z" fill="#395E95"/>
<path d="M63.6553 57.9009L50.8602 45.1058L49.3525 46.6135L61.3939 58.6549L58.6365 61.4123L46.5951 49.3709L45.0874 50.8786L57.8825 63.6737C58.0904 63.8816 58.3634 63.9861 58.6364 63.9861C58.9094 63.9861 59.1823 63.8816 59.3903 63.6737L63.6553 59.4087C64.0722 58.9917 64.0722 58.3178 63.6553 57.9009Z" fill="#395E95"/>
<path d="M14.4345 2.8571C13.6242 2.38898 12.7039 2.14273 11.7817 2.14273C11.7582 2.14161 11.7327 2.14373 11.7124 2.14273C10.2922 2.14273 8.95609 2.6951 7.9496 3.69734C6.94086 4.70283 6.38324 6.04095 6.38112 7.46443C6.37899 8.43792 6.64336 9.39329 7.14673 10.2272L10.8766 16.5458C11.0684 16.8711 11.4172 17.0705 11.7946 17.0705C11.7967 17.0705 11.7999 17.0705 11.8009 17.0716C12.1806 17.0695 12.5303 16.8658 12.7189 16.5363L16.3858 10.1409C17.855 7.59455 16.9796 4.32746 14.4345 2.8571ZM14.5379 9.07554L11.7816 13.8834L8.98159 9.13854C8.97947 9.13529 8.97734 9.13216 8.97522 9.12891C8.67234 8.62779 8.51247 8.05418 8.5146 7.46868C8.51572 6.61356 8.85047 5.8107 9.45509 5.2082C10.0597 4.60683 10.8604 4.27521 11.7273 4.27521C11.7284 4.27521 11.7306 4.27521 11.7327 4.27521C12.2808 4.28271 12.8726 4.41596 13.3694 4.70283C14.8962 5.5857 15.4219 7.54556 14.5379 9.07554Z" fill="#395E95"/>
<path d="M12.7656 6.40881H10.6331V8.54131H12.7656V6.40881Z" fill="#395E95"/>
<path d="M27.5069 28.487C27.138 27.1104 26.2562 25.961 25.0225 25.2488C24.2228 24.787 23.3123 24.5408 22.4017 24.5354C20.9846 24.5173 19.6294 25.0429 18.6057 26.0324C17.5821 27.0219 17.0043 28.3515 16.9808 29.775C16.9638 30.7783 17.2281 31.7615 17.7464 32.6198L21.4645 38.9364C21.6563 39.2616 22.0061 39.462 22.3836 39.462C22.3857 39.462 22.3868 39.462 22.3889 39.4631C22.7686 39.461 23.1193 39.2574 23.3081 38.9268L26.9739 32.5323C27.686 31.2987 27.8748 29.8625 27.5069 28.487ZM25.1248 31.4682L22.3706 36.2728L19.5801 31.5322C19.578 31.528 19.5759 31.5237 19.5737 31.5205C19.2614 31.0055 19.1014 30.4137 19.112 29.8102C19.1259 28.9561 19.4724 28.1586 20.0866 27.5646C20.688 26.9835 21.4748 26.6658 22.3193 26.6658C22.3386 26.6658 22.3577 26.6658 22.3758 26.6669C22.9292 26.6701 23.4762 26.8182 23.9561 27.0955C25.4832 27.9772 26.0088 29.9382 25.1248 31.4682Z" fill="#395E95"/>
<path d="M23.3749 28.8005H21.2424V30.933H23.3749V28.8005Z" fill="#395E95"/>
<path d="M40.3019 11.4256C39.9331 10.049 39.0512 8.89967 37.8186 8.18742C37.0189 7.72568 36.1072 7.47943 35.1966 7.47406C33.8179 7.45593 32.4243 7.98155 31.4007 8.97104C30.377 9.96053 29.7992 11.2901 29.7757 12.7136C29.7587 13.717 30.023 14.7001 30.5413 15.5585L34.2594 21.8762C34.4513 22.2014 34.801 22.4018 35.1785 22.4018C35.1806 22.4018 35.1827 22.4018 35.186 22.4018C35.5656 22.3997 35.9154 22.196 36.104 21.8665L39.7698 15.4711C40.4822 14.2374 40.6709 12.8011 40.3019 11.4256ZM37.921 14.408L35.1657 19.2137L32.3753 14.472C32.3731 14.4677 32.371 14.4635 32.3689 14.4602C32.0565 13.9452 31.8965 13.3535 31.9072 12.75C31.921 11.8959 32.2675 11.0984 32.8818 10.5044C33.4831 9.92328 34.27 9.60554 35.1145 9.60554C35.1347 9.60554 35.154 9.60553 35.1721 9.60666C35.7255 9.60991 36.2715 9.75803 36.7512 10.0353C38.2793 10.917 38.8038 12.8779 37.921 14.408Z" fill="#395E95"/>
<path d="M36.1701 11.7401H34.0376V13.8726H36.1701V11.7401Z" fill="#395E95"/>
</g>
<defs>
<clipPath id="clip0_1962_4806">
<rect width="64" height="64" fill="white"/>
</clipPath>
</defs>
</svg>
