<svg width="64" height="64" viewBox="0 0 64 64" fill="none" xmlns="http://www.w3.org/2000/svg">
<path d="M38.1935 53.6774C36.4861 53.6774 35.0967 55.0668 35.0967 56.7742C35.0967 58.4816 36.4861 59.871 38.1935 59.871C39.9008 59.871 41.2902 58.4816 41.2902 56.7742C41.2902 55.0668 39.9008 53.6774 38.1935 53.6774ZM38.1935 57.8065C37.6247 57.8065 37.1612 57.344 37.1612 56.7742C37.1612 56.2044 37.6247 55.7419 38.1935 55.7419C38.7622 55.7419 39.2257 56.2044 39.2257 56.7742C39.2257 57.344 38.7622 57.8065 38.1935 57.8065Z" fill="#395E95"/>
<path d="M13.4193 53.6774C11.7119 53.6774 10.3225 55.0668 10.3225 56.7742C10.3225 58.4816 11.7119 59.871 13.4193 59.871C15.1266 59.871 16.5161 58.4816 16.5161 56.7742C16.5161 55.0668 15.1266 53.6774 13.4193 53.6774ZM13.4193 57.8065C12.8505 57.8065 12.387 57.344 12.387 56.7742C12.387 56.2044 12.8505 55.7419 13.4193 55.7419C13.9881 55.7419 14.4515 56.2044 14.4515 56.7742C14.4515 57.344 13.9881 57.8065 13.4193 57.8065Z" fill="#395E95"/>
<path d="M15.484 16.5161C17.1913 16.5161 18.5808 15.1267 18.5808 13.4193C18.5808 11.712 17.1913 10.3226 15.484 10.3226C13.7766 10.3226 12.3872 11.712 12.3872 13.4193C12.3872 15.1267 13.7766 16.5161 15.484 16.5161ZM15.484 12.3871C16.0528 12.3871 16.5162 12.8495 16.5162 13.4193C16.5162 13.9892 16.0528 14.4516 15.484 14.4516C14.9152 14.4516 14.4517 13.9892 14.4517 13.4193C14.4517 12.8495 14.9152 12.3871 15.484 12.3871Z" fill="#395E95"/>
<path d="M56.7743 37.1613C55.0669 37.1613 53.6775 38.5507 53.6775 40.2581C53.6775 41.9654 55.0669 43.3549 56.7743 43.3549C58.4816 43.3549 59.871 41.9654 59.871 40.2581C59.871 38.5507 58.4816 37.1613 56.7743 37.1613ZM56.7743 41.2903C56.2055 41.2903 55.742 40.8279 55.742 40.2581C55.742 39.6883 56.2055 39.2258 56.7743 39.2258C57.343 39.2258 57.8065 39.6883 57.8065 40.2581C57.8065 40.8279 57.343 41.2903 56.7743 41.2903Z" fill="#395E95"/>
<path d="M57.761 33.1076C57.7765 32.7381 57.8064 32.3685 57.8064 32C57.8064 27.295 56.5223 22.721 54.111 18.7148C55.167 16.8568 55.7419 14.7375 55.7419 12.5894V12.3871C55.7419 5.55664 50.1853 0 43.3548 0C38.7737 0 34.7737 2.50632 32.6307 6.21419C28.6286 6.12232 24.5657 6.976 20.9383 8.69471C19.6119 7.16594 17.6609 6.19355 15.4839 6.19355C11.4994 6.19355 8.25806 9.43587 8.25806 13.4194C8.25806 14.9739 8.77213 16.513 9.70323 17.7538L10.1306 18.3236C7.74503 22.1316 6.40929 26.4661 6.23174 30.9677H4.12903C2.99045 30.9677 2.06452 31.8937 2.06452 33.0323V53.6774C0.925935 53.6774 0 54.6034 0 55.7419V57.8064C0 58.945 0.925935 59.871 2.06452 59.871H6.90064C8.06297 62.3081 10.5445 64 13.4194 64C16.2942 64 18.7757 62.3081 19.9381 59.871H31.6748C32.8372 62.3081 35.3187 64 38.1935 64C41.0684 64 43.5499 62.3081 44.7123 59.871H47.4839C48.6225 59.871 49.5484 58.945 49.5484 57.8064V54.9636C49.5484 54.7117 49.5174 54.4599 49.4565 54.2121L48.7959 51.5695C50.3339 50.2493 51.7058 48.7608 52.8919 47.1236L56.7742 52.3014L62.5548 44.5935C63.487 43.3517 64 41.8116 64 40.2581C64 36.6101 61.279 33.5917 57.761 33.1076ZM43.3548 2.06452C49.0467 2.06452 53.6774 6.69523 53.6774 12.3871V12.5884C53.6774 14.8903 52.8939 17.1561 51.4715 18.9657L43.3548 29.2975L35.2382 18.9657C33.8157 17.1561 33.0323 14.8914 33.0323 12.5884V12.3871C33.0323 6.69523 37.663 2.06452 43.3548 2.06452ZM15.4839 8.25806C18.3298 8.25806 20.6452 10.5734 20.6452 13.4194C20.6452 14.529 20.2787 15.6294 19.6129 16.5151L15.4839 22.0212L11.3548 16.5151C10.689 15.6294 10.3226 14.529 10.3226 13.4194C10.3226 10.5734 12.6379 8.25806 15.4839 8.25806ZM4.12903 33.0323H12.3871V40.896L17.5484 38.3154L22.7097 40.896V33.0323H30.9677V53.6774H19.9381C18.7757 51.2403 16.2942 49.5484 13.4194 49.5484C10.5445 49.5484 8.06297 51.2403 6.90064 53.6774H4.12903V33.0323ZM14.4516 33.0323H20.6452V37.5556L17.5484 36.0072L14.4516 37.5556V33.0323ZM33.0323 39.2258H42.7747C43.2485 39.2258 43.6614 39.5479 43.776 40.0072L44.097 41.2903H39.2258C38.0872 41.2903 37.1613 42.2163 37.1613 43.3548V45.4194C37.1613 46.5579 38.0872 47.4839 39.2258 47.4839H45.6454L47.1938 53.6774H44.7123C43.5499 51.2403 41.0684 49.5484 38.1935 49.5484C36.1724 49.5484 34.3453 50.3845 33.0323 51.7275V39.2258ZM45.1293 45.4194H39.2258V43.3548H44.6132L45.1293 45.4194ZM2.06452 57.8064V55.7419H6.27613C6.22761 56.0805 6.19355 56.4232 6.19355 56.7742C6.19355 57.1252 6.22761 57.4679 6.27613 57.8064H2.06452ZM13.4194 61.9355C10.5734 61.9355 8.25806 59.6201 8.25806 56.7742C8.25806 53.9283 10.5734 51.6129 13.4194 51.6129C16.2653 51.6129 18.5806 53.9283 18.5806 56.7742C18.5806 59.6201 16.2653 61.9355 13.4194 61.9355ZM20.5626 57.8064C20.6111 57.4679 20.6452 57.1252 20.6452 56.7742C20.6452 56.4232 20.6111 56.0805 20.5626 55.7419H31.0503C31.0018 56.0805 30.9677 56.4232 30.9677 56.7742C30.9677 57.1252 31.0018 57.4679 31.0503 57.8064H20.5626ZM38.1935 61.9355C35.3476 61.9355 33.0323 59.6201 33.0323 56.7742C33.0323 53.9283 35.3476 51.6129 38.1935 51.6129C41.0395 51.6129 43.3548 53.9283 43.3548 56.7742C43.3548 59.6201 41.0395 61.9355 38.1935 61.9355ZM45.3368 57.8064C45.3853 57.4679 45.4194 57.1252 45.4194 56.7742C45.4194 56.4232 45.3853 56.0805 45.3368 55.7419H47.4839V57.8064H45.3368ZM48.2323 49.3161L45.7796 39.5066C45.4338 38.1264 44.1982 37.1613 42.7747 37.1613H33.0323V33.0323C33.0323 31.8937 32.1063 30.9677 30.9677 30.9677H8.29523C8.46039 27.1215 9.53806 23.4095 11.4612 20.0991L15.4839 25.4627L21.2645 17.7548C22.1966 16.513 22.7097 14.9729 22.7097 13.4194C22.7097 12.3572 22.4733 11.3507 22.0594 10.4413C25.0839 9.04052 28.3148 8.30968 31.6862 8.26735C31.2299 9.55871 30.9677 10.9409 30.9677 12.3871V12.5884C30.9677 15.3517 31.9081 18.0707 33.6144 20.2415L43.3548 32.6379L52.8206 20.5905C54.7334 24.0754 55.7419 27.9876 55.7419 32C55.7419 32.3726 55.713 32.7474 55.6965 33.1221C52.223 33.6454 49.5484 36.641 49.5484 40.2581C49.5484 41.8126 50.0625 43.3517 50.9935 44.5925L51.5892 45.3874C50.6116 46.815 49.4937 48.1342 48.2323 49.3161ZM60.9032 43.3538L56.7742 48.8599L52.6452 43.3538C51.9794 42.4681 51.6129 41.3677 51.6129 40.2581C51.6129 37.4121 53.9283 35.0968 56.7742 35.0968C59.6201 35.0968 61.9355 37.4121 61.9355 40.2581C61.9355 41.3677 61.569 42.4681 60.9032 43.3538Z" fill="#395E95"/>
<path d="M43.3547 20.6452C47.908 20.6452 51.6128 16.9404 51.6128 12.3871C51.6128 7.8338 47.908 4.12903 43.3547 4.12903C38.8015 4.12903 35.0967 7.8338 35.0967 12.3871C35.0967 16.9404 38.8015 20.6452 43.3547 20.6452ZM43.3547 6.19354C46.7705 6.19354 49.5483 8.97135 49.5483 12.3871C49.5483 15.8028 46.7705 18.5806 43.3547 18.5806C39.939 18.5806 37.1612 15.8028 37.1612 12.3871C37.1612 8.97135 39.939 6.19354 43.3547 6.19354Z" fill="#395E95"/>
<path d="M24.7742 26.8387H26.8387V28.9032H24.7742V26.8387Z" fill="#395E95"/>
<path d="M28.9033 26.8387H30.9678V28.9032H28.9033V26.8387Z" fill="#395E95"/>
<path d="M33.0322 26.8387H35.0967V28.9032H33.0322V26.8387Z" fill="#395E95"/>
</svg>
