<svg width="64" height="64" viewBox="0 0 64 64" fill="none" xmlns="http://www.w3.org/2000/svg">
<path d="M27.8712 22.7097C26.1638 22.7097 24.7744 24.0991 24.7744 25.8065C24.7744 27.5138 26.1638 28.9032 27.8712 28.9032C29.5785 28.9032 30.968 27.5138 30.968 25.8065C30.968 24.0991 29.5785 22.7097 27.8712 22.7097ZM27.8712 26.8387C27.3014 26.8387 26.8389 26.3752 26.8389 25.8065C26.8389 25.2377 27.3014 24.7742 27.8712 24.7742C28.441 24.7742 28.9034 25.2377 28.9034 25.8065C28.9034 26.3752 28.441 26.8387 27.8712 26.8387Z" fill="#395E95"/>
<path d="M15.484 22.7097C13.7766 22.7097 12.3872 24.0991 12.3872 25.8065C12.3872 27.5138 13.7766 28.9032 15.484 28.9032C17.1913 28.9032 18.5808 27.5138 18.5808 25.8065C18.5808 24.0991 17.1913 22.7097 15.484 22.7097ZM15.484 26.8387C14.9142 26.8387 14.4517 26.3752 14.4517 25.8065C14.4517 25.2377 14.9142 24.7742 15.484 24.7742C16.0538 24.7742 16.5162 25.2377 16.5162 25.8065C16.5162 26.3752 16.0538 26.8387 15.484 26.8387Z" fill="#395E95"/>
<path d="M39.2256 47.4839H41.2901V49.5484H39.2256V47.4839Z" fill="#395E95"/>
<path d="M43.355 47.4839H45.4195V49.5484H43.355V47.4839Z" fill="#395E95"/>
<path d="M47.4839 47.4839H49.5484V49.5484H47.4839V47.4839Z" fill="#395E95"/>
<path d="M59.871 22.7097V12.3871C59.871 11.2485 58.9451 10.3226 57.8065 10.3226H47.4839C46.3454 10.3226 45.4194 11.2485 45.4194 12.3871V22.7097C45.4194 23.8483 46.3454 24.7742 47.4839 24.7742H57.8065C58.9451 24.7742 59.871 23.8483 59.871 22.7097ZM51.613 12.3871H53.6775V13.8137L52.6452 13.2976L51.613 13.8137V12.3871ZM47.4839 12.3871H49.5485V17.1541L52.6452 15.6057L55.742 17.1541V12.3871H57.8065L57.8076 22.7097H47.4839V12.3871Z" fill="#395E95"/>
<path d="M50.3618 31.2485C50.624 32.2994 51.5634 33.0323 52.6452 33.0323C53.727 33.0323 54.6663 32.2994 54.9285 31.2485L55.5148 28.9032H60.9032C62.6106 28.9032 64 27.5138 64 25.8064V9.29032C64 7.58297 62.6106 6.19355 60.9032 6.19355H44.3871C42.6797 6.19355 41.2903 7.58297 41.2903 9.29032V23.7688C40.6875 23.3125 39.9928 22.9708 39.2258 22.815V17.5484C39.2258 7.872 31.3538 0 21.6774 0C12.001 0 4.12903 7.872 4.12903 17.5484V22.8139C1.77652 23.2939 0 25.3791 0 27.871C0 30.7169 2.31535 33.0323 5.16129 33.0323H6.19355V35.0968C6.19355 38.3257 8.67716 40.9817 11.8338 41.2625C10.8965 42.3226 10.3226 43.7099 10.3226 45.2335V51.6129V64H22.7097H57.0901C58.6116 64 59.8957 62.911 60.1445 61.4121L63.9597 38.5166C63.9855 38.3577 64 38.1966 64 38.0356C64 36.415 62.6818 35.0968 61.0612 35.0968H60.4305C59.008 35.0968 57.792 36.1115 57.5391 37.5102L53.8488 57.8064H39.1215C38.6415 55.4539 36.5574 53.6774 34.0645 53.6774H29.8529L29.4421 48.7432C29.1757 45.5391 27.5283 42.689 25.0281 40.8506C29.1148 39.7946 32.4573 36.8702 34.0625 33.0333H38.1935C40.7597 33.0333 42.8779 31.1453 43.2723 28.6885C43.6191 28.8217 43.9928 28.9032 44.3871 28.9032H49.7755L50.3618 31.2485ZM21.6774 2.06452C30.2152 2.06452 37.1613 9.01058 37.1613 17.5484V22.7097H35.0968V19.7801C35.0968 19.7234 35.0854 19.6686 35.0834 19.6129H35.0968V17.5484C35.0968 10.1492 29.0766 4.12903 21.6774 4.12903C14.2782 4.12903 8.25806 10.1492 8.25806 17.5484V20.6452V22.7097H6.19355V17.5484C6.19355 9.01058 13.1396 2.06452 21.6774 2.06452ZM28.2106 10.7241L27.1649 10.3752L26.5115 12.3334L27.5572 12.6823C28.3623 12.9507 28.9032 13.7001 28.9032 14.5486C28.9032 15.6335 28.0217 16.5161 26.9368 16.5161H12.3871C11.6418 16.5161 10.9512 16.7298 10.3463 17.0777C10.5961 11.0359 15.5757 6.19355 21.6774 6.19355C27.4663 6.19355 32.2488 10.5507 32.9383 16.1569C32.7277 16.0423 32.5068 15.9412 32.2735 15.8637L30.8748 15.3972C30.9337 15.1226 30.9677 14.8397 30.9677 14.5486C30.9677 12.8114 29.8601 11.2743 28.2106 10.7241ZM6.19355 24.7742H8.25806V27.871C8.25806 28.929 8.38916 29.9654 8.62555 30.9677H6.19355V24.7742ZM2.06452 27.871C2.06452 26.527 2.93058 25.3915 4.12903 24.9641V30.7768C2.93058 30.3505 2.06452 29.215 2.06452 27.871ZM8.25806 35.0968V33.0323H9.29136C10.3412 35.5551 12.1497 37.7301 14.5249 39.2258H12.3871C10.1099 39.2258 8.25806 37.3739 8.25806 35.0968ZM21.6774 35.0968C20.384 35.0968 19.2537 34.2565 18.8748 33.0323H24.48C24.1012 34.2565 22.9708 35.0968 21.6774 35.0968ZM19.6129 37.1613C20.1827 37.1613 20.6452 37.6248 20.6452 38.1935C20.6452 38.7623 20.1827 39.2258 19.6129 39.2258H16.8103C17.1892 38.0015 18.3195 37.1613 19.6129 37.1613ZM12.3871 61.9355V58.4454C13.3058 59.8286 14.4939 61.0168 15.8772 61.9355H12.3871ZM12.3871 51.6129V45.2335C12.3871 43.0596 14.1554 41.2903 16.3293 41.2903C18.2792 41.2903 19.9577 42.7458 20.2323 44.6761L21.6145 54.3453L19.9154 56.0444L21.375 57.504L23.137 55.7419H33.0323V61.9355H22.7097C17.0178 61.9355 12.3871 57.3048 12.3871 51.6129ZM57.0901 61.9355H35.0968V59.871H58.3081L58.1079 61.0735C58.0253 61.5732 57.5969 61.9355 57.0901 61.9355ZM59.5706 37.8787C59.6449 37.4627 60.0072 37.1613 60.4305 37.1613H61.0612C61.5432 37.1613 61.9355 37.5535 61.9355 38.0356C61.9355 38.0841 61.9314 38.1326 61.9231 38.1791L58.6519 57.8064H55.9453L59.5706 37.8787ZM36.9714 57.8064H35.0968V55.9319C35.9711 56.2436 36.6596 56.9321 36.9714 57.8064ZM27.3848 48.9146L27.7822 53.6774H23.6046L22.2772 44.384C22.1037 43.1732 21.5556 42.0986 20.7783 41.2366C21.0013 41.2511 21.2222 41.2717 21.4452 41.2759C24.7639 42.4248 27.0926 45.409 27.3848 48.9146ZM33.0323 27.871C33.0323 33.8436 28.3943 38.7427 22.5332 39.1824C22.6395 38.8697 22.7097 38.5414 22.7097 38.1935C22.7097 37.8044 22.6292 37.4359 22.4981 37.0921C24.4377 36.7711 26.0377 35.3342 26.5259 33.375L27.1288 30.9677H16.2261L16.8289 33.375C17.0219 34.1492 17.3966 34.8335 17.889 35.4085C16.8908 35.775 16.031 36.449 15.4446 37.3368C12.2705 35.2454 10.3226 31.7192 10.3226 27.871V20.6452C10.3226 19.5066 11.2485 18.5806 12.3871 18.5806H26.9368C28.1166 18.5806 29.1695 18.0614 29.9076 17.2511L31.6201 17.8219C32.4645 18.1037 33.0323 18.8903 33.0323 19.7801V27.871ZM35.0968 27.871V24.7742H37.1613V30.9677H34.7221C34.9585 29.9716 35.0968 28.9383 35.0968 27.871ZM39.2258 30.7778V24.9652C40.4243 25.3925 41.2903 26.528 41.2903 27.872C41.2903 29.216 40.4243 30.3505 39.2258 30.7778ZM43.3548 25.8064V9.29032C43.3548 8.72155 43.8173 8.25806 44.3871 8.25806H60.9032C61.473 8.25806 61.9355 8.72155 61.9355 9.29032V25.8064C61.9355 26.3752 61.473 26.8387 60.9032 26.8387H53.9045L52.927 30.7479C52.8619 31.007 52.4294 31.007 52.3644 30.7479L51.3858 26.8387H44.3871C43.8173 26.8387 43.3548 26.3752 43.3548 25.8064Z" fill="#395E95"/>
</svg>
