<svg width="50" height="50" viewBox="0 0 50 50" fill="none" xmlns="http://www.w3.org/2000/svg">
<path d="M9.35144 33.6614H9.34353C8.93904 33.6614 8.61511 33.9893 8.61511 34.3938C8.61511 34.7983 8.94695 35.1262 9.35144 35.1262C9.75593 35.1262 10.0839 34.7983 10.0839 34.3938C10.0839 33.9893 9.75593 33.6614 9.35144 33.6614Z" fill="#395E95"/>
<path d="M15.614 33.6614H15.6062C15.2017 33.6614 14.8777 33.9893 14.8777 34.3938C14.8777 34.7983 15.2095 35.1262 15.614 35.1262C16.0185 35.1262 16.3464 34.7983 16.3464 34.3938C16.3464 33.9893 16.0185 33.6614 15.614 33.6614Z" fill="#395E95"/>
<path d="M41.4473 33.6614H41.4395C41.035 33.6614 40.7109 33.9893 40.7109 34.3938C40.7109 34.7983 41.0428 35.1262 41.4473 35.1262C41.8518 35.1262 42.1797 34.7983 42.1797 34.3938C42.1797 33.9893 41.8518 33.6614 41.4473 33.6614Z" fill="#395E95"/>
<path d="M49.3269 24.8062L48.3421 23.8215L46.3582 17.8697C46.6542 17.7757 46.8688 17.4988 46.8688 17.1718C46.8688 16.7673 46.5408 16.4394 46.1363 16.4394H39.0405V13.2579C39.0405 12.4224 38.3608 11.7427 37.5253 11.7427H1.51523C0.679688 11.7427 0 12.4225 0 13.2579V30.48C0 31.3155 0.679688 31.9952 1.51523 31.9952H2.34844V33.6108C2.34844 34.4464 3.02813 35.1261 3.86367 35.1261H5.55029C5.89365 36.9073 7.46348 38.2573 9.34346 38.2573C10.6308 38.2573 11.7723 37.6239 12.4747 36.653C13.1772 37.6239 14.3188 38.2573 15.6061 38.2573C17.486 38.2573 19.056 36.9073 19.3992 35.1261H37.6461C37.9895 36.9073 39.5593 38.2573 41.4393 38.2573C43.5697 38.2573 45.3029 36.524 45.3029 34.3937C45.3029 34.3769 45.3019 34.3604 45.3017 34.3437H48.4847C49.3202 34.3437 49.9999 33.664 49.9999 32.8284V26.4312C50 25.8174 49.7609 25.2403 49.3269 24.8062ZM5.55029 33.6613H3.86367C3.83584 33.6613 3.81328 33.6388 3.81328 33.6109V31.9953H6.31768C5.93877 32.4725 5.66992 33.0404 5.55029 33.6613ZM9.34346 36.7927C8.0207 36.7927 6.94463 35.7165 6.94463 34.3938C6.94463 33.0762 8.0127 32.0035 9.32852 31.9953H9.35859C10.6744 32.0034 11.7425 33.0761 11.7425 34.3938C11.7424 35.7165 10.6662 36.7927 9.34346 36.7927ZM15.6062 36.7927C14.2834 36.7927 13.2072 35.7165 13.2072 34.3938C13.2072 33.0762 14.2753 32.0035 15.5911 31.9953H15.6212C16.937 32.0034 18.0051 33.0761 18.0051 34.3938C18.005 35.7165 16.9289 36.7927 15.6062 36.7927ZM37.6462 33.6613H19.3993C19.2797 33.0404 19.0108 32.4724 18.6318 31.9952H32.8282C33.2327 31.9952 33.5606 31.6673 33.5606 31.2628C33.5606 30.8583 33.2327 30.5304 32.8282 30.5304H1.51523C1.4874 30.5304 1.46484 30.5078 1.46484 30.48V13.2579C1.46484 13.2301 1.4874 13.2075 1.51523 13.2075H37.5252C37.553 13.2075 37.5756 13.2301 37.5756 13.2579V30.5305H35.9599C35.5554 30.5305 35.2274 30.8584 35.2274 31.2629C35.2274 31.6674 35.5554 31.9953 35.9599 31.9953H38.4136C38.0346 32.4725 37.7658 33.0404 37.6462 33.6613ZM46.9467 24.2675H42.2222C42.1943 24.2675 42.1718 24.2449 42.1718 24.2171V21.0354H45.8693L46.9467 24.2675ZM41.4394 36.7927C40.1166 36.7927 39.0405 35.7165 39.0405 34.3938C39.0405 33.0762 40.1086 32.0035 41.4244 31.9953H41.4395C41.4411 31.9953 41.4428 31.9951 41.4445 31.995C42.7649 31.9978 43.8384 33.0728 43.8384 34.3937C43.8382 35.7165 42.7621 36.7927 41.4394 36.7927ZM48.5352 32.8286C48.5352 32.8564 48.5126 32.879 48.4848 32.879H44.9934C44.403 31.4994 43.0324 30.5302 41.4394 30.5302C41.4343 30.5302 41.4294 30.5306 41.4243 30.5306H39.0405V17.9549V17.9545C39.0405 17.9267 39.0631 17.9041 39.0909 17.9041H44.8256L45.3811 19.5705H41.4394C41.0349 19.5705 40.7069 19.8984 40.7069 20.3029V24.2171C40.7069 25.0526 41.3866 25.7323 42.2222 25.7323H48.1814L48.2911 25.8421C48.4484 25.9995 48.5352 26.2087 48.5352 26.4313V28.182H47.702C47.2975 28.182 46.9695 28.51 46.9695 28.9145C46.9695 29.3189 47.2975 29.6469 47.702 29.6469H48.5352V32.8286Z" fill="#395E95"/>
<path d="M35.1766 27.3992H3.86365C3.45916 27.3992 3.13123 27.7271 3.13123 28.1316C3.13123 28.5361 3.45916 28.864 3.86365 28.864H35.1766C35.5811 28.864 35.9091 28.5361 35.9091 28.1316C35.9091 27.7271 35.5811 27.3992 35.1766 27.3992Z" fill="#395E95"/>
</svg>
