<svg width="24" height="24" viewBox="0 0 24 24" fill="none" xmlns="http://www.w3.org/2000/svg">
<path d="M12 2V1V2ZM6 8H5H6ZM3 17L2.4453 16.1679C2.07864 16.4124 1.91521 16.868 2.04291 17.2898C2.17061 17.7115 2.55933 18 3 18V17ZM21 17V18C21.4407 18 21.8294 17.7115 21.9571 17.2898C22.0848 16.868 21.9214 16.4124 21.5547 16.1679L21 17ZM14.595 21.5018C14.8721 21.024 14.7095 20.4121 14.2318 20.135C13.754 19.8579 13.1421 20.0205 12.865 20.4982L14.595 21.5018ZM11.135 20.4982C10.8579 20.0205 10.246 19.8579 9.76823 20.135C9.2905 20.4121 9.12788 21.024 9.405 21.5018L11.135 20.4982ZM19 8C19 6.14349 18.2625 4.36301 16.9497 3.05025L15.5355 4.46447C16.4732 5.40215 17 6.67392 17 8H19ZM16.9497 3.05025C15.637 1.7375 13.8565 1 12 1V3C13.3261 3 14.5979 3.52678 15.5355 4.46447L16.9497 3.05025ZM12 1C10.1435 1 8.36301 1.7375 7.05025 3.05025L8.46447 4.46447C9.40215 3.52678 10.6739 3 12 3V1ZM7.05025 3.05025C5.7375 4.36301 5 6.14348 5 8H7C7 6.67392 7.52678 5.40215 8.46447 4.46447L7.05025 3.05025ZM5 8C5 11.3527 4.28293 13.4346 3.6221 14.6461C3.29031 15.2544 2.96723 15.6535 2.7428 15.8904C2.63032 16.0091 2.54194 16.0878 2.48872 16.1322C2.4621 16.1544 2.44425 16.168 2.43655 16.1737C2.4327 16.1766 2.43139 16.1775 2.43279 16.1765C2.43349 16.176 2.43486 16.175 2.43694 16.1736C2.43798 16.1729 2.4392 16.1721 2.44059 16.1711C2.44128 16.1706 2.44202 16.1701 2.44281 16.1696C2.4432 16.1694 2.44382 16.1689 2.44402 16.1688C2.44465 16.1684 2.4453 16.1679 3 17C3.5547 17.8321 3.55537 17.8316 3.55605 17.8312C3.55629 17.831 3.55698 17.8305 3.55746 17.8302C3.55843 17.8296 3.55945 17.8289 3.5605 17.8282C3.56262 17.8267 3.56492 17.8252 3.56741 17.8235C3.57237 17.8201 3.57805 17.8161 3.58443 17.8116C3.59718 17.8026 3.61271 17.7915 3.63084 17.778C3.66708 17.751 3.71368 17.7148 3.76909 17.6686C3.87994 17.5762 4.02593 17.444 4.1947 17.2659C4.53277 16.909 4.95969 16.3706 5.3779 15.6039C6.21707 14.0654 7 11.6473 7 8H5ZM3 18H21V16H3V18ZM21 17C21.5547 16.1679 21.5553 16.1684 21.556 16.1688C21.5562 16.1689 21.5568 16.1694 21.5572 16.1696C21.558 16.1701 21.5587 16.1706 21.5594 16.1711C21.5608 16.1721 21.562 16.1729 21.5631 16.1736C21.5651 16.175 21.5665 16.176 21.5672 16.1765C21.5686 16.1775 21.5673 16.1766 21.5635 16.1737C21.5558 16.168 21.5379 16.1544 21.5113 16.1322C21.4581 16.0878 21.3697 16.0091 21.2572 15.8904C21.0328 15.6535 20.7097 15.2544 20.3779 14.6461C19.7171 13.4346 19 11.3527 19 8H17C17 11.6473 17.7829 14.0654 18.6221 15.6039C19.0403 16.3706 19.4672 16.909 19.8053 17.2659C19.9741 17.444 20.1201 17.5762 20.2309 17.6686C20.2863 17.7148 20.3329 17.751 20.3692 17.778C20.3873 17.7915 20.4028 17.8026 20.4156 17.8116C20.422 17.8161 20.4276 17.8201 20.4326 17.8235C20.4351 17.8252 20.4374 17.8267 20.4395 17.8282C20.4406 17.8289 20.4416 17.8296 20.4425 17.8302C20.443 17.8305 20.4437 17.831 20.444 17.8312C20.4446 17.8316 20.4453 17.8321 21 17ZM12.865 20.4982C12.7771 20.6498 12.6509 20.7756 12.4991 20.863L13.4973 22.5961C13.9528 22.3337 14.3313 21.9564 14.595 21.5018L12.865 20.4982ZM12.4991 20.863C12.3473 20.9504 12.1752 20.9965 12 20.9965V22.9965C12.5256 22.9965 13.0419 22.8584 13.4973 22.5961L12.4991 20.863ZM12 20.9965C11.8248 20.9965 11.6527 20.9504 11.5009 20.863L10.5027 22.5961C10.9581 22.8584 11.4744 22.9965 12 22.9965V20.9965ZM11.5009 20.863C11.3491 20.7756 11.2229 20.6498 11.135 20.4982L9.405 21.5018C9.66872 21.9564 10.0472 22.3337 10.5027 22.5961L11.5009 20.863Z" fill="#395E95"/>
</svg>
