<svg width="40" height="40" viewBox="0 0 40 40" fill="none" xmlns="http://www.w3.org/2000/svg">
<path d="M7.48115 26.9291H7.47482C7.15123 26.9291 6.89209 27.1914 6.89209 27.515C6.89209 27.8386 7.15756 28.101 7.48115 28.101C7.80475 28.101 8.06709 27.8386 8.06709 27.515C8.06709 27.1914 7.80475 26.9291 7.48115 26.9291Z" fill="#395E95"/>
<path d="M12.4914 26.9291H12.4852C12.1616 26.9291 11.9023 27.1914 11.9023 27.515C11.9023 27.8386 12.1678 28.101 12.4914 28.101C12.815 28.101 13.0773 27.8386 13.0773 27.515C13.0773 27.1914 12.815 26.9291 12.4914 26.9291Z" fill="#395E95"/>
<path d="M33.1579 26.9291H33.1517C32.8281 26.9291 32.5688 27.1914 32.5688 27.515C32.5688 27.8386 32.8343 28.101 33.1579 28.101C33.4815 28.101 33.7438 27.8386 33.7438 27.515C33.7438 27.1914 33.4815 26.9291 33.1579 26.9291Z" fill="#395E95"/>
<path d="M39.4615 19.845L38.6737 19.0572L37.0866 14.2958C37.3234 14.2206 37.495 13.9991 37.495 13.7374C37.495 13.4139 37.2327 13.1515 36.9091 13.1515H31.2324V10.6064C31.2324 9.93791 30.6887 9.39417 30.0202 9.39417H1.21219C0.54375 9.39417 0 9.93799 0 10.6064V24.384C0 25.0524 0.54375 25.5962 1.21219 25.5962H1.87875V26.8887C1.87875 27.5571 2.4225 28.1009 3.09094 28.1009H4.44023C4.71492 29.5259 5.97078 30.6059 7.47477 30.6059C8.50461 30.6059 9.41781 30.0992 9.97976 29.3224C10.5418 30.0992 11.455 30.6059 12.4848 30.6059C13.9888 30.6059 15.2448 29.5259 15.5194 28.1009H30.1169C30.3916 29.5259 31.6474 30.6059 33.1514 30.6059C34.8558 30.6059 36.2423 29.2192 36.2423 27.5149C36.2423 27.5015 36.2415 27.4883 36.2413 27.4749H38.7877C39.4562 27.4749 39.9999 26.9312 39.9999 26.2628V21.1449C40 20.6539 39.8088 20.1923 39.4615 19.845ZM4.44023 26.9291H3.09094C3.06867 26.9291 3.05063 26.911 3.05063 26.8888V25.5963H5.05414C4.75102 25.978 4.53594 26.4324 4.44023 26.9291ZM7.47477 29.4342C6.41656 29.4342 5.5557 28.5732 5.5557 27.5151C5.5557 26.461 6.41016 25.6028 7.46281 25.5963H7.48688C8.53953 25.6028 9.39398 26.4609 9.39398 27.5151C9.39391 28.5732 8.53297 29.4342 7.47477 29.4342ZM12.4849 29.4342C11.4267 29.4342 10.5658 28.5732 10.5658 27.5151C10.5658 26.461 11.4202 25.6028 12.4729 25.5963H12.497C13.5496 25.6028 14.4041 26.4609 14.4041 27.5151C14.404 28.5732 13.5431 29.4342 12.4849 29.4342ZM30.117 26.9291H15.5195C15.4237 26.4324 15.2087 25.9779 14.9055 25.5962H26.2626C26.5862 25.5962 26.8485 25.3339 26.8485 25.0103C26.8485 24.6867 26.5862 24.4243 26.2626 24.4243H1.21219C1.18992 24.4243 1.17188 24.4063 1.17188 24.384V10.6064C1.17188 10.5841 1.18992 10.566 1.21219 10.566H30.0202C30.0424 10.566 30.0605 10.5841 30.0605 10.6064V24.4244H28.7679C28.4443 24.4244 28.182 24.6867 28.182 25.0103C28.182 25.3339 28.4443 25.5963 28.7679 25.5963H30.7309C30.4277 25.978 30.2127 26.4324 30.117 26.9291ZM37.5573 19.414H33.7777C33.7555 19.414 33.7374 19.396 33.7374 19.3737V16.8283H36.6955L37.5573 19.414ZM33.1515 29.4342C32.0933 29.4342 31.2324 28.5732 31.2324 27.5151C31.2324 26.461 32.0869 25.6028 33.1395 25.5963H33.1516C33.1529 25.5963 33.1542 25.5961 33.1556 25.596C34.212 25.5982 35.0707 26.4582 35.0707 27.515C35.0705 28.5732 34.2097 29.4342 33.1515 29.4342ZM38.8281 26.2629C38.8281 26.2852 38.8101 26.3032 38.7878 26.3032H35.9947C35.5224 25.1996 34.4259 24.4242 33.1515 24.4242C33.1474 24.4242 33.1435 24.4245 33.1395 24.4245H31.2324V14.3639V14.3636C31.2324 14.3414 31.2505 14.3233 31.2727 14.3233H35.8605L36.3048 15.6564H33.1515C32.8279 15.6564 32.5655 15.9188 32.5655 16.2424V19.3737C32.5655 20.0421 33.1093 20.5859 33.7777 20.5859H38.5451L38.6329 20.6737C38.7588 20.7996 38.8281 20.967 38.8281 21.145V22.5457H38.1616C37.838 22.5457 37.5756 22.808 37.5756 23.1316C37.5756 23.4552 37.838 23.7175 38.1616 23.7175H38.8281V26.2629Z" fill="#395E95"/>
<path d="M28.1412 21.9193H3.09082C2.76723 21.9193 2.50488 22.1817 2.50488 22.5052C2.50488 22.8288 2.76723 23.0912 3.09082 23.0912H28.1412C28.4648 23.0912 28.7271 22.8288 28.7271 22.5052C28.7271 22.1817 28.4648 21.9193 28.1412 21.9193Z" fill="#395E95"/>
</svg>
