<svg width="24" height="24" viewBox="0 0 24 24" fill="none" xmlns="http://www.w3.org/2000/svg">
<path d="M20.2929 21.7071C20.6834 22.0976 21.3166 22.0976 21.7071 21.7071C22.0976 21.3166 22.0976 20.6834 21.7071 20.2929L20.2929 21.7071ZM17.3571 15.9429C16.9666 15.5524 16.3334 15.5524 15.9429 15.9429C15.5524 16.3334 15.5524 16.9666 15.9429 17.3571L17.3571 15.9429ZM18 11C18 14.866 14.866 18 11 18V20C15.9706 20 20 15.9706 20 11H18ZM11 18C7.13401 18 4 14.866 4 11H2C2 15.9706 6.02944 20 11 20V18ZM4 11C4 7.13401 7.13401 4 11 4V2C6.02944 2 2 6.02944 2 11H4ZM11 4C14.866 4 18 7.13401 18 11H20C20 6.02944 15.9706 2 11 2V4ZM21.7071 20.2929L17.3571 15.9429L15.9429 17.3571L20.2929 21.7071L21.7071 20.2929Z" fill="#395E95"/>
</svg>
