<svg width="16" height="17" viewBox="0 0 16 17" fill="none" xmlns="http://www.w3.org/2000/svg">
<path fill-rule="evenodd" clip-rule="evenodd" d="M7.99984 2.49999C4.68613 2.49999 1.99984 5.18628 1.99984 8.49999C1.99984 11.8137 4.68613 14.5 7.99984 14.5C11.3135 14.5 13.9998 11.8137 13.9998 8.49999C13.9998 5.18628 11.3135 2.49999 7.99984 2.49999ZM0.666504 8.49999C0.666504 4.4499 3.94975 1.16666 7.99984 1.16666C12.0499 1.16666 15.3332 4.4499 15.3332 8.49999C15.3332 12.5501 12.0499 15.8333 7.99984 15.8333C3.94975 15.8333 0.666504 12.5501 0.666504 8.49999ZM8.17191 5.84955C7.86157 5.79632 7.54239 5.85464 7.27093 6.01418C6.99946 6.17373 6.79321 6.4242 6.68872 6.72123C6.56654 7.06856 6.18593 7.25108 5.8386 7.12889C5.49128 7.00671 5.30876 6.6261 5.43094 6.27878C5.63993 5.6847 6.05241 5.18376 6.59535 4.86467C7.13828 4.54558 7.77663 4.42894 8.39732 4.53541C9.01802 4.64187 9.581 4.96458 9.98657 5.44636C10.3921 5.92804 10.614 6.53766 10.6132 7.16728C10.6129 8.18752 9.85646 8.86127 9.3163 9.22137C9.02588 9.41499 8.7402 9.55735 8.52976 9.65088C8.42359 9.69806 8.33419 9.73387 8.26977 9.75841C8.2375 9.7707 8.21134 9.78023 8.1923 9.787L8.16915 9.79511L8.16177 9.79763L8.15917 9.7985L8.15815 9.79885C8.15815 9.79885 8.16915 9.79511 8.15732 9.79913C7.80802 9.91556 7.43048 9.72678 7.31404 9.37749C7.19769 9.02843 7.38614 8.65115 7.73498 8.53445L7.74562 8.53072C7.75588 8.52707 7.77269 8.52097 7.79511 8.51243C7.84006 8.4953 7.90691 8.46861 7.98824 8.43246C8.1528 8.35933 8.36712 8.25169 8.5767 8.11197C9.03643 7.80548 9.27983 7.47943 9.27983 7.16667V7.16568C9.2803 6.8508 9.16932 6.54591 8.96654 6.30502C8.76375 6.06413 8.48226 5.90278 8.17191 5.84955ZM7.99984 11.1667C7.63165 11.1667 7.33317 11.4651 7.33317 11.8333C7.33317 12.2015 7.63165 12.5 7.99984 12.5H8.0065C8.37469 12.5 8.67317 12.2015 8.67317 11.8333C8.67317 11.4651 8.37469 11.1667 8.0065 11.1667H7.99984Z" fill="#E5E7EB"/>
</svg>
