<svg width="64" height="64" viewBox="0 0 64 64" fill="none" xmlns="http://www.w3.org/2000/svg">
<g clip-path="url(#clip0_1962_4790)">
<path d="M36.1201 53.6997C34.4165 53.6997 33.03 55.0861 33.03 56.7898C33.03 58.4934 34.4165 59.8799 36.1201 59.8799C37.8238 59.8799 39.2102 58.4934 39.2102 56.7898C39.2102 55.0861 37.8238 53.6997 36.1201 53.6997ZM36.1201 57.8198C35.5515 57.8198 35.0901 57.3583 35.0901 56.7898C35.0901 56.2212 35.5515 55.7597 36.1201 55.7597C36.6887 55.7597 37.1502 56.2212 37.1502 56.7898C37.1502 57.3583 36.6887 57.8198 36.1201 57.8198Z" fill="#395E95"/>
<path d="M13.4595 53.6997C11.7558 53.6997 10.3694 55.0861 10.3694 56.7898C10.3694 58.4934 11.7558 59.8799 13.4595 59.8799C15.1632 59.8799 16.5496 58.4934 16.5496 56.7898C16.5496 55.0861 15.1632 53.6997 13.4595 53.6997ZM13.4595 57.8198C12.8909 57.8198 12.4294 57.3583 12.4294 56.7898C12.4294 56.2212 12.8909 55.7597 13.4595 55.7597C14.0281 55.7597 14.4895 56.2212 14.4895 56.7898C14.4895 57.3583 14.0281 57.8198 13.4595 57.8198Z" fill="#395E95"/>
<path d="M48.4805 53.6997C46.7768 53.6997 45.3904 55.0861 45.3904 56.7898C45.3904 58.4934 46.7768 59.8799 48.4805 59.8799C50.1841 59.8799 51.5706 58.4934 51.5706 56.7898C51.5706 55.0861 50.1841 53.6997 48.4805 53.6997ZM48.4805 57.8198C47.9119 57.8198 47.4504 57.3583 47.4504 56.7898C47.4504 56.2212 47.9119 55.7597 48.4805 55.7597C49.0491 55.7597 49.5105 56.2212 49.5105 56.7898C49.5105 57.3583 49.0491 57.8198 48.4805 57.8198Z" fill="#395E95"/>
<path d="M30.97 47.5195H51.5706C52.7067 47.5195 53.6307 46.5955 53.6307 45.4594V31.039C53.6307 29.9029 52.7067 28.9789 51.5706 28.9789H30.97C29.8339 28.9789 28.9099 29.9029 28.9099 31.039V45.4594C28.9099 46.5945 29.8339 47.5195 30.97 47.5195ZM39.2102 31.039H43.3304V35.1591H39.2102V31.039ZM30.97 31.039H37.1502V35.1591C37.1502 36.2952 38.0741 37.2192 39.2102 37.2192H43.3304C44.4665 37.2192 45.3904 36.2952 45.3904 35.1591V31.039H51.5706L51.5727 45.4594H30.97V31.039Z" fill="#395E95"/>
<path d="M36.1201 41.3393H38.1802V43.3994H36.1201V41.3393Z" fill="#395E95"/>
<path d="M40.2402 41.3393H42.3003V43.3994H40.2402V41.3393Z" fill="#395E95"/>
<path d="M44.3604 41.3393H46.4204V43.3994H44.3604V41.3393Z" fill="#395E95"/>
<path d="M9.11379 47.5195H15.7451C17.3242 47.5195 18.6096 46.234 18.6096 44.655V42.1438C18.6096 40.5647 17.3242 39.2792 15.7451 39.2792H9.74211C8.42572 39.2792 7.28239 40.1712 6.96411 41.4475L6.33476 43.9607C6.27708 44.1873 6.24927 44.4212 6.24927 44.655C6.24927 46.234 7.53475 47.5195 9.11379 47.5195ZM8.33199 44.4603L8.96031 41.948C9.05095 41.5896 9.37026 41.3393 9.74108 41.3393H15.7441C16.188 41.3393 16.5486 41.7008 16.5486 42.1438V44.655C16.5486 45.0989 16.187 45.4594 15.7441 45.4594H9.11379C8.67087 45.4594 8.30933 45.0979 8.30933 44.655C8.30933 44.588 8.31757 44.5221 8.33199 44.4603Z" fill="#395E95"/>
<path d="M59.9922 22.4815C60.3806 22.6885 60.8173 22.7987 61.255 22.7987C62.7311 22.7987 63.9321 21.5977 63.9321 20.1217V18.6364C63.9321 17.6444 63.3893 16.7401 62.5148 16.2745L32.0001 0L1.48745 16.2745C0.611919 16.7401 0.0690918 17.6444 0.0690918 18.6364V20.1217C0.0690918 21.5977 1.27011 22.7987 2.74614 22.7987C3.18391 22.7987 3.62064 22.6895 4.01102 22.4815L8.30935 20.1783V35.1591H7.69751C5.75178 35.1591 4.09858 36.4858 3.67523 38.3862L0.166945 54.1786C0.102053 54.4732 0.0690918 54.7719 0.0690918 55.0686V57.8198C0.0690918 58.9559 0.99303 59.8799 2.12916 59.8799H6.95485C8.11467 62.3118 10.5909 64 13.4595 64C16.3281 64 18.8033 62.3118 19.9642 59.8799H29.6156C30.7754 62.3118 33.2516 64 36.1202 64C38.7447 64 41.0386 62.5858 42.3004 60.4845C43.5622 62.5858 45.8561 64 48.4806 64C51.3492 64 53.8244 62.3118 54.9852 59.8799H61.871C63.0071 59.8799 63.9311 58.9559 63.9311 57.8198V55.7597C63.9311 54.6236 63.0071 53.6997 61.871 53.6997V26.9189C61.871 25.7827 60.9471 24.8588 59.8109 24.8588H55.6908V20.1783L59.9922 22.4815ZM3.03867 20.6655C2.64108 20.8757 2.12916 20.5625 2.12916 20.1217V18.6364C2.12916 18.4077 2.25379 18.1996 2.45568 18.0935L32.0001 2.33611L61.5455 18.0935C61.7464 18.1996 61.871 18.4077 61.871 18.6364V20.1217C61.871 20.5625 61.3529 20.8767 60.9635 20.6645L32.0001 5.14913L3.03867 20.6655ZM43.3304 24.8588H22.7298C21.5937 24.8588 20.6697 25.7827 20.6697 26.9189V18.6786H43.3304V24.8588ZM18.6715 28.9789H20.6697V35.1591H10.5981C11.5756 31.5664 14.8552 28.9789 18.6715 28.9789ZM5.68689 38.8332C5.89804 37.8825 6.72516 37.2192 7.69751 37.2192H20.6697V53.6997H19.9642C18.8043 51.2678 16.3281 49.5796 13.4595 49.5796C10.5909 49.5796 8.1157 51.2678 6.95485 53.6997H2.38357L5.68689 38.8332ZM2.12916 57.8198V55.7597H6.33169C6.28327 56.0976 6.24928 56.4396 6.24928 56.7898C6.24928 57.14 6.28327 57.482 6.33169 57.8198H2.12916ZM13.4595 61.9399C10.6197 61.9399 8.30935 59.6296 8.30935 56.7898C8.30935 53.95 10.6197 51.6396 13.4595 51.6396C16.2993 51.6396 18.6097 53.95 18.6097 56.7898C18.6097 59.6296 16.2993 61.9399 13.4595 61.9399ZM20.5873 57.8198C20.6357 57.482 20.6697 57.14 20.6697 56.7898C20.6697 56.4396 20.6357 56.0976 20.5873 55.7597H28.9924C28.944 56.0976 28.91 56.4396 28.91 56.7898C28.91 57.14 28.944 57.482 28.9924 57.8198H20.5873ZM36.1202 61.9399C33.2804 61.9399 30.97 59.6296 30.97 56.7898C30.97 53.95 33.2804 51.6396 36.1202 51.6396C38.96 51.6396 41.2704 53.95 41.2704 56.7898C41.2704 59.6296 38.96 61.9399 36.1202 61.9399ZM48.4806 61.9399C45.6408 61.9399 43.3304 59.6296 43.3304 56.7898C43.3304 53.95 45.6408 51.6396 48.4806 51.6396C51.3204 51.6396 53.6308 53.95 53.6308 56.7898C53.6308 59.6296 51.3204 61.9399 48.4806 61.9399ZM61.871 57.8198H55.6084C55.6568 57.482 55.6908 57.14 55.6908 56.7898C55.6908 56.4396 55.6568 56.0976 55.6084 55.7597H61.871V57.8198ZM59.8109 53.6997H54.9852C53.8254 51.2678 51.3492 49.5796 48.4806 49.5796C45.8561 49.5796 43.5622 50.9938 42.3004 53.0951C41.0386 50.9938 38.7447 49.5796 36.1202 49.5796C33.2516 49.5796 30.7764 51.2678 29.6156 53.6997H22.7298V26.9189H59.8109V53.6997ZM53.6308 24.8588H45.3905V18.6786C45.3905 17.5425 44.4666 16.6185 43.3304 16.6185H20.6697C19.5336 16.6185 18.6097 17.5425 18.6097 18.6786V26.9219C15.2765 26.9415 12.277 28.5463 10.3694 31.0513V19.0752L32.0001 7.4873L53.6308 19.0741V24.8588Z" fill="#395E95"/>
</g>
<defs>
<clipPath id="clip0_1962_4790">
<rect width="64" height="64" fill="white"/>
</clipPath>
</defs>
</svg>
