<svg width="24" height="24" viewBox="0 0 24 24" fill="none" xmlns="http://www.w3.org/2000/svg">
<path d="M19.4 15L20.3149 15.4038L20.3191 15.3939L19.4 15ZM19.73 16.82L19.0151 17.5193L19.0229 17.5271L19.73 16.82ZM19.79 16.88L19.0829 17.5871L19.0833 17.5875L19.79 16.88ZM19.79 19.71L19.0833 19.0025L19.0825 19.0033L19.79 19.71ZM16.96 19.71L17.6675 19.0033L17.6671 19.0029L16.96 19.71ZM16.9 19.65L17.6071 18.9429L17.5993 18.9351L16.9 19.65ZM15.08 19.32L15.474 20.2392L15.4838 20.2349L15.08 19.32ZM14.08 20.83L13.08 20.826V20.83H14.08ZM10.08 20.91H11.08C11.08 20.9022 11.0799 20.8944 11.0797 20.8866L10.08 20.91ZM9 19.4L8.59623 20.3149C8.61551 20.3234 8.63505 20.3313 8.65482 20.3385L9 19.4ZM7.18 19.73L6.48069 19.0151L6.47288 19.0229L7.18 19.73ZM7.12 19.79L6.41288 19.0829L6.4125 19.0833L7.12 19.79ZM4.29 19.79L4.9975 19.0833L4.99671 19.0825L4.29 19.79ZM3.70343 18.375H4.70343H3.70343ZM4.29 16.96L4.99671 17.6675L4.9971 17.6671L4.29 16.96ZM4.35 16.9L5.05715 17.6072L5.06486 17.5993L4.35 16.9ZM4.68 15.08L3.76081 15.474L3.76514 15.4838L4.68 15.08ZM3.17 14.08L3.17399 13.08H3.17V14.08ZM1 12.08H0H1ZM3 10.08V11.08V10.08ZM3.09 10.08V11.08C3.0978 11.08 3.10559 11.0799 3.11338 11.0797L3.09 10.08ZM4.6 9L3.68514 8.59623C3.67663 8.61551 3.66874 8.63505 3.66146 8.65482L4.6 9ZM4.27 7.18L4.98491 6.48069L4.97711 6.47289L4.27 7.18ZM4.21 7.12L4.91711 6.41289L4.91671 6.4125L4.21 7.12ZM4.21 4.29L4.91671 4.9975L4.9175 4.99671L4.21 4.29ZM7.04 4.29L6.3325 4.99671L6.33289 4.99711L7.04 4.29ZM7.1 4.35L6.39285 5.05715L6.40073 5.06486L7.1 4.35ZM8.92 4.68V3.68C8.78096 3.68 8.64344 3.709 8.51623 3.76514L8.92 4.68ZM9 4.68V5.68C9.13543 5.68 9.26945 5.65249 9.39393 5.59914L9 4.68ZM10 3.17L11 3.17399V3.17H10ZM12 1V0V1ZM14 3.09H13L13 3.09399L14 3.09ZM15 4.6L15.4038 3.68508L15.3939 3.68086L15 4.6ZM16.82 4.27L17.5193 4.98491L17.5271 4.9771L16.82 4.27ZM16.88 4.21L17.5871 4.9171L17.5875 4.91671L16.88 4.21ZM18.295 3.62343V4.62343V3.62343ZM19.71 4.21L19.0025 4.91671L19.0033 4.9175L19.71 4.21ZM19.71 7.04L19.0033 6.3325L19.0029 6.3329L19.71 7.04ZM19.65 7.1L18.9428 6.39285L18.9351 6.40073L19.65 7.1ZM19.32 8.92H20.32C20.32 8.78096 20.291 8.64344 20.2349 8.51623L19.32 8.92ZM19.32 9H18.32C18.32 9.13543 18.3475 9.26945 18.4009 9.39393L19.32 9ZM20.83 10L20.826 11H20.83V10ZM20.91 14V13L20.906 13L20.91 14ZM14 12C14 13.1046 13.1046 14 12 14V16C14.2091 16 16 14.2091 16 12H14ZM12 14C10.8954 14 10 13.1046 10 12H8C8 14.2091 9.79086 16 12 16V14ZM10 12C10 10.8954 10.8954 10 12 10V8C9.79086 8 8 9.79086 8 12H10ZM12 10C13.1046 10 14 10.8954 14 12H16C16 9.79086 14.2091 8 12 8V10ZM18.4851 14.5962C18.2713 15.0806 18.2076 15.618 18.302 16.139L20.27 15.7822C20.2468 15.6544 20.2624 15.5226 20.3149 15.4038L18.4851 14.5962ZM18.302 16.139C18.3965 16.66 18.6449 17.1407 19.0151 17.5193L20.4449 16.1207C20.354 16.0279 20.2931 15.91 20.27 15.7822L18.302 16.139ZM19.0229 17.5271L19.0829 17.5871L20.4971 16.1729L20.4371 16.1129L19.0229 17.5271ZM19.0833 17.5875C19.1763 17.6804 19.25 17.7907 19.3003 17.9121L21.1479 17.1462C20.9969 16.782 20.7756 16.4511 20.4967 16.1725L19.0833 17.5875ZM19.3003 17.9121C19.3507 18.0335 19.3766 18.1636 19.3766 18.295H21.3766C21.3766 17.9008 21.2989 17.5104 21.1479 17.1462L19.3003 17.9121ZM19.3766 18.295C19.3766 18.4264 19.3507 18.5565 19.3003 18.6779L21.1479 19.4438C21.2989 19.0796 21.3766 18.6892 21.3766 18.295H19.3766ZM19.3003 18.6779C19.25 18.7993 19.1763 18.9096 19.0833 19.0025L20.4967 20.4175C20.7756 20.1389 20.9969 19.808 21.1479 19.4438L19.3003 18.6779ZM19.0825 19.0033C18.9896 19.0963 18.8793 19.17 18.7579 19.2203L19.5238 21.0679C19.888 20.9169 20.2189 20.6956 20.4975 20.4167L19.0825 19.0033ZM18.7579 19.2203C18.6365 19.2707 18.5064 19.2966 18.375 19.2966V21.2966C18.7692 21.2966 19.1596 21.2189 19.5238 21.0679L18.7579 19.2203ZM18.375 19.2966C18.2436 19.2966 18.1135 19.2707 17.9921 19.2203L17.2262 21.0679C17.5904 21.2189 17.9808 21.2966 18.375 21.2966V19.2966ZM17.9921 19.2203C17.8707 19.17 17.7604 19.0963 17.6675 19.0033L16.2525 20.4167C16.5311 20.6956 16.862 20.9169 17.2262 21.0679L17.9921 19.2203ZM17.6671 19.0029L17.6071 18.9429L16.1929 20.3571L16.2529 20.4171L17.6671 19.0029ZM17.5993 18.9351C17.2207 18.5649 16.74 18.3165 16.219 18.222L15.8622 20.19C15.99 20.2131 16.1079 20.274 16.2007 20.3649L17.5993 18.9351ZM16.219 18.222C15.698 18.1276 15.1606 18.1913 14.6762 18.4051L15.4838 20.2349C15.6026 20.1824 15.7344 20.1668 15.8622 20.19L16.219 18.222ZM14.6861 18.4009C14.211 18.6045 13.8059 18.9425 13.5206 19.3734L15.1881 20.4777C15.258 20.372 15.3574 20.2891 15.4739 20.2391L14.6861 18.4009ZM13.5206 19.3734C13.2352 19.8043 13.0821 20.3092 13.08 20.826L15.08 20.834C15.0805 20.7072 15.1181 20.5834 15.1881 20.4777L13.5206 19.3734ZM13.08 20.83V21H15.08V20.83H13.08ZM13.08 21C13.08 21.2652 12.9746 21.5196 12.7871 21.7071L14.2013 23.1213C14.7639 22.5587 15.08 21.7957 15.08 21H13.08ZM12.7871 21.7071C12.5996 21.8946 12.3452 22 12.08 22V24C12.8757 24 13.6387 23.6839 14.2013 23.1213L12.7871 21.7071ZM12.08 22C11.8148 22 11.5604 21.8946 11.3729 21.7071L9.95868 23.1213C10.5213 23.6839 11.2843 24 12.08 24V22ZM11.3729 21.7071C11.1854 21.5196 11.08 21.2652 11.08 21H9.08C9.08 21.7957 9.39607 22.5587 9.95868 23.1213L11.3729 21.7071ZM11.08 21V20.91H9.08V21H11.08ZM11.0797 20.8866C11.0673 20.355 10.8952 19.8395 10.5859 19.407L8.95914 20.5704C9.03502 20.6765 9.07722 20.803 9.08027 20.9334L11.0797 20.8866ZM10.5859 19.407C10.2765 18.9745 9.84424 18.645 9.34518 18.4615L8.65482 20.3385C8.77723 20.3836 8.88327 20.4644 8.95914 20.5704L10.5859 19.407ZM9.40377 18.4851C8.91935 18.2713 8.382 18.2076 7.861 18.302L8.21782 20.27C8.34561 20.2468 8.47742 20.2624 8.59623 20.3149L9.40377 18.4851ZM7.861 18.302C7.34 18.3965 6.85925 18.6449 6.48073 19.0151L7.87926 20.4449C7.97211 20.354 8.09003 20.2931 8.21782 20.27L7.861 18.302ZM6.47288 19.0229L6.41288 19.0829L7.82712 20.4971L7.88712 20.4371L6.47288 19.0229ZM6.4125 19.0833C6.31963 19.1763 6.20934 19.25 6.08794 19.3003L6.85382 21.1479C7.21801 20.9969 7.54888 20.7756 7.8275 20.4967L6.4125 19.0833ZM6.08794 19.3003C5.96654 19.3507 5.83641 19.3766 5.705 19.3766V21.3766C6.09925 21.3766 6.48963 21.2989 6.85382 21.1479L6.08794 19.3003ZM5.705 19.3766C5.57359 19.3766 5.44346 19.3507 5.32206 19.3003L4.55618 21.1479C4.92037 21.2989 5.31075 21.3766 5.705 21.3766V19.3766ZM5.32206 19.3003C5.20066 19.25 5.09037 19.1763 4.9975 19.0833L3.5825 20.4967C3.86112 20.7756 4.19199 20.9969 4.55618 21.1479L5.32206 19.3003ZM4.99671 19.0825C4.90374 18.9896 4.82998 18.8793 4.77965 18.7579L2.93211 19.5238C3.08308 19.888 3.30436 20.2189 3.58329 20.4975L4.99671 19.0825ZM4.77965 18.7579C4.72933 18.6365 4.70343 18.5064 4.70343 18.375H2.70343C2.70343 18.7692 2.78113 19.1596 2.93211 19.5238L4.77965 18.7579ZM4.70343 18.375C4.70343 18.2436 4.72933 18.1135 4.77965 17.9921L2.93211 17.2262C2.78113 17.5904 2.70343 17.9808 2.70343 18.375H4.70343ZM4.77965 17.9921C4.82998 17.8707 4.90374 17.7604 4.99671 17.6675L3.58329 16.2525C3.30436 16.5311 3.08308 16.862 2.93211 17.2262L4.77965 17.9921ZM4.9971 17.6671L5.0571 17.6071L3.6429 16.1929L3.5829 16.2529L4.9971 17.6671ZM5.06486 17.5993C5.43512 17.2207 5.68349 16.74 5.77796 16.219L3.81005 15.8622C3.78688 15.99 3.72595 16.1079 3.63514 16.2007L5.06486 17.5993ZM5.77796 16.219C5.87243 15.698 5.80865 15.1606 5.59486 14.6762L3.76514 15.4838C3.81758 15.6026 3.83322 15.7344 3.81005 15.8622L5.77796 16.219ZM5.59914 14.6861C5.39555 14.211 5.0575 13.8059 4.62661 13.5206L3.52232 15.1881C3.62801 15.258 3.71092 15.3574 3.76086 15.4739L5.59914 14.6861ZM4.62661 13.5206C4.19572 13.2352 3.6908 13.0821 3.17399 13.08L3.16601 15.08C3.29278 15.0805 3.41663 15.1181 3.52232 15.1881L4.62661 13.5206ZM3.17 13.08H3V15.08H3.17V13.08ZM3 13.08C2.73478 13.08 2.48043 12.9746 2.29289 12.7871L0.87868 14.2013C1.44129 14.7639 2.20435 15.08 3 15.08V13.08ZM2.29289 12.7871C2.10536 12.5996 2 12.3452 2 12.08H0C0 12.8756 0.316071 13.6387 0.87868 14.2013L2.29289 12.7871ZM2 12.08C2 11.8148 2.10536 11.5604 2.29289 11.3729L0.87868 9.95868C0.316071 10.5213 0 11.2844 0 12.08H2ZM2.29289 11.3729C2.48043 11.1854 2.73478 11.08 3 11.08V9.08C2.20435 9.08 1.44129 9.39607 0.87868 9.95868L2.29289 11.3729ZM3 11.08H3.09V9.08H3V11.08ZM3.11338 11.0797C3.64498 11.0673 4.16054 10.8952 4.59305 10.5859L3.42955 8.95914C3.32347 9.03502 3.19701 9.07722 3.06662 9.08027L3.11338 11.0797ZM4.59305 10.5859C5.02555 10.2765 5.35499 9.84424 5.53854 9.34518L3.66146 8.65482C3.61644 8.77723 3.53564 8.88327 3.42955 8.95914L4.59305 10.5859ZM5.51486 9.40377C5.72865 8.91935 5.79243 8.382 5.69796 7.861L3.73005 8.21782C3.75322 8.34561 3.73758 8.47742 3.68514 8.59623L5.51486 9.40377ZM5.69796 7.861C5.60349 7.34 5.35512 6.85925 4.98486 6.48073L3.55514 7.87926C3.64595 7.97211 3.70688 8.09003 3.73005 8.21782L5.69796 7.861ZM4.97711 6.47289L4.91711 6.41289L3.50289 7.82711L3.56289 7.88711L4.97711 6.47289ZM4.91671 6.4125C4.82374 6.31963 4.74998 6.20934 4.69965 6.08794L2.85211 6.85382C3.00308 7.21802 3.22436 7.54888 3.50329 7.8275L4.91671 6.4125ZM4.69965 6.08794C4.64933 5.96654 4.62343 5.83642 4.62343 5.705H2.62343C2.62343 6.09925 2.70113 6.48963 2.85211 6.85382L4.69965 6.08794ZM4.62343 5.705C4.62343 5.57358 4.64933 5.44346 4.69965 5.32206L2.85211 4.55618C2.70113 4.92037 2.62343 5.31075 2.62343 5.705H4.62343ZM4.69965 5.32206C4.74998 5.20066 4.82374 5.09037 4.91671 4.9975L3.50329 3.5825C3.22436 3.86112 3.00308 4.19198 2.85211 4.55618L4.69965 5.32206ZM4.9175 4.99671C5.01037 4.90374 5.12066 4.82998 5.24206 4.77965L4.47618 2.93211C4.11198 3.08308 3.78112 3.30436 3.5025 3.58329L4.9175 4.99671ZM5.24206 4.77965C5.36346 4.72933 5.49358 4.70343 5.625 4.70343V2.70343C5.23075 2.70343 4.84037 2.78113 4.47618 2.93211L5.24206 4.77965ZM5.625 4.70343C5.75642 4.70343 5.88654 4.72933 6.00794 4.77965L6.77382 2.93211C6.40963 2.78113 6.01925 2.70343 5.625 2.70343V4.70343ZM6.00794 4.77965C6.12934 4.82998 6.23963 4.90374 6.3325 4.99671L7.7475 3.58329C7.46888 3.30436 7.13802 3.08308 6.77382 2.93211L6.00794 4.77965ZM6.33289 4.99711L6.39289 5.05711L7.80711 3.64289L7.74711 3.58289L6.33289 4.99711ZM6.40073 5.06486C6.77925 5.43512 7.26 5.68349 7.781 5.77796L8.13782 3.81005C8.01003 3.78688 7.89211 3.72595 7.79926 3.63514L6.40073 5.06486ZM7.781 5.77796C8.302 5.87243 8.83935 5.80865 9.32377 5.59486L8.51623 3.76514C8.39742 3.81758 8.26561 3.83322 8.13782 3.81005L7.781 5.77796ZM8.92 5.68H9V3.68H8.92V5.68ZM9.39393 5.59914C9.86895 5.39555 10.2741 5.0575 10.5594 4.62661L8.89195 3.52232C8.82195 3.62801 8.72258 3.71092 8.60607 3.76086L9.39393 5.59914ZM10.5594 4.62661C10.8448 4.19572 10.9979 3.6908 11 3.17399L9.00001 3.16601C8.9995 3.29278 8.96194 3.41663 8.89195 3.52232L10.5594 4.62661ZM11 3.17V3H9V3.17H11ZM11 3C11 2.73478 11.1054 2.48043 11.2929 2.29289L9.87868 0.87868C9.31607 1.44129 9 2.20435 9 3H11ZM11.2929 2.29289C11.4804 2.10536 11.7348 2 12 2V0C11.2044 0 10.4413 0.316071 9.87868 0.87868L11.2929 2.29289ZM12 2C12.2652 2 12.5196 2.10536 12.7071 2.29289L14.1213 0.87868C13.5587 0.316071 12.7956 0 12 0V2ZM12.7071 2.29289C12.8946 2.48043 13 2.73478 13 3H15C15 2.20435 14.6839 1.44129 14.1213 0.87868L12.7071 2.29289ZM13 3V3.09H15V3H13ZM13 3.09399C13.0021 3.6108 13.1552 4.11572 13.4406 4.54661L15.1081 3.44232C15.0381 3.33663 15.0005 3.21278 15 3.08601L13 3.09399ZM13.4406 4.54661C13.7259 4.97751 14.131 5.31555 14.6061 5.51914L15.3939 3.68086C15.2774 3.63092 15.178 3.54801 15.1081 3.44232L13.4406 4.54661ZM14.5962 5.51486C15.0806 5.72865 15.618 5.79243 16.139 5.69796L15.7822 3.73005C15.6544 3.75322 15.5226 3.73758 15.4038 3.68514L14.5962 5.51486ZM16.139 5.69796C16.66 5.60349 17.1407 5.35512 17.5193 4.98486L16.1207 3.55514C16.0279 3.64595 15.91 3.70688 15.7822 3.73005L16.139 5.69796ZM17.5271 4.9771L17.5871 4.9171L16.1729 3.5029L16.1129 3.5629L17.5271 4.9771ZM17.5875 4.91671C17.6804 4.82374 17.7907 4.74998 17.9121 4.69965L17.1462 2.85211C16.782 3.00308 16.4511 3.22436 16.1725 3.50329L17.5875 4.91671ZM17.9121 4.69965C18.0335 4.64933 18.1636 4.62343 18.295 4.62343V2.62343C17.9008 2.62343 17.5104 2.70113 17.1462 2.85211L17.9121 4.69965ZM18.295 4.62343C18.4264 4.62343 18.5565 4.64933 18.6779 4.69965L19.4438 2.85211C19.0796 2.70113 18.6892 2.62343 18.295 2.62343V4.62343ZM18.6779 4.69965C18.7993 4.74998 18.9096 4.82374 19.0025 4.91671L20.4175 3.50329C20.1389 3.22436 19.808 3.00308 19.4438 2.85211L18.6779 4.69965ZM19.0033 4.9175C19.0963 5.01037 19.17 5.12066 19.2203 5.24206L21.0679 4.47618C20.9169 4.11198 20.6956 3.78112 20.4167 3.5025L19.0033 4.9175ZM19.2203 5.24206C19.2707 5.36346 19.2966 5.49359 19.2966 5.625H21.2966C21.2966 5.23075 21.2189 4.84037 21.0679 4.47618L19.2203 5.24206ZM19.2966 5.625C19.2966 5.75641 19.2707 5.88654 19.2203 6.00794L21.0679 6.77382C21.2189 6.40963 21.2966 6.01925 21.2966 5.625H19.2966ZM19.2203 6.00794C19.17 6.12934 19.0963 6.23963 19.0033 6.3325L20.4167 7.7475C20.6956 7.46888 20.9169 7.13802 21.0679 6.77382L19.2203 6.00794ZM19.0029 6.3329L18.9429 6.3929L20.3571 7.8071L20.4171 7.7471L19.0029 6.3329ZM18.9351 6.40073C18.5649 6.77925 18.3165 7.26 18.222 7.781L20.19 8.13782C20.2131 8.01003 20.274 7.89211 20.3649 7.79926L18.9351 6.40073ZM18.222 7.781C18.1276 8.302 18.1913 8.83935 18.4051 9.32377L20.2349 8.51623C20.1824 8.39742 20.1668 8.26561 20.19 8.13782L18.222 7.781ZM18.32 8.92V9H20.32V8.92H18.32ZM18.4009 9.39393C18.6045 9.86896 18.9425 10.2741 19.3734 10.5594L20.4777 8.89195C20.372 8.82195 20.2891 8.72258 20.2391 8.60607L18.4009 9.39393ZM19.3734 10.5594C19.8043 10.8448 20.3092 10.9979 20.826 11L20.834 9.00001C20.7072 8.9995 20.5834 8.96194 20.4777 8.89195L19.3734 10.5594ZM20.83 11H21V9H20.83V11ZM21 11C21.2652 11 21.5196 11.1054 21.7071 11.2929L23.1213 9.87868C22.5587 9.31607 21.7957 9 21 9V11ZM21.7071 11.2929C21.8946 11.4804 22 11.7348 22 12H24C24 11.2043 23.6839 10.4413 23.1213 9.87868L21.7071 11.2929ZM22 12C22 12.2652 21.8946 12.5196 21.7071 12.7071L23.1213 14.1213C23.6839 13.5587 24 12.7957 24 12H22ZM21.7071 12.7071C21.5196 12.8946 21.2652 13 21 13V15C21.7957 15 22.5587 14.6839 23.1213 14.1213L21.7071 12.7071ZM21 13H20.91V15H21V13ZM20.906 13C20.3892 13.0021 19.8843 13.1552 19.4534 13.4406L20.5577 15.1081C20.6634 15.0381 20.7872 15.0005 20.914 15L20.906 13ZM19.4534 13.4406C19.0225 13.7259 18.6845 14.131 18.4809 14.6061L20.3191 15.3939C20.3691 15.2774 20.452 15.178 20.5577 15.1081L19.4534 13.4406Z" fill="#395E95"/>
</svg>
