<svg width="24" height="24" viewBox="0 0 24 24" fill="none" xmlns="http://www.w3.org/2000/svg">
<path d="M12 13L11.4265 13.8192C11.7709 14.0603 12.2291 14.0603 12.5735 13.8192L12 13ZM4 5H20V3H4V5ZM20 5C20.5477 5 21 5.45228 21 6H23C23 4.34772 21.6523 3 20 3V5ZM21 6V18H23V6H21ZM21 18C21 18.5477 20.5477 19 20 19V21C21.6523 21 23 19.6523 23 18H21ZM20 19H4V21H20V19ZM4 19C3.45228 19 3 18.5477 3 18H1C1 19.6523 2.34772 21 4 21V19ZM3 18V6H1V18H3ZM3 6C3 5.45228 3.45228 5 4 5V3C2.34772 3 1 4.34772 1 6H3ZM21.4265 5.18077L11.4265 12.1808L12.5735 13.8192L22.5735 6.81923L21.4265 5.18077ZM12.5735 12.1808L2.57346 5.18077L1.42654 6.81923L11.4265 13.8192L12.5735 12.1808Z" fill="#395E95"/>
</svg>
