<svg width="16" height="17" viewBox="0 0 16 17" fill="none" xmlns="http://www.w3.org/2000/svg">
<path fill-rule="evenodd" clip-rule="evenodd" d="M7.99984 2.49996C4.68613 2.49996 1.99984 5.18625 1.99984 8.49996C1.99984 11.8137 4.68613 14.5 7.99984 14.5C11.3135 14.5 13.9998 11.8137 13.9998 8.49996C13.9998 5.18625 11.3135 2.49996 7.99984 2.49996ZM0.666504 8.49996C0.666504 4.44987 3.94975 1.16663 7.99984 1.16663C12.0499 1.16663 15.3332 4.44987 15.3332 8.49996C15.3332 12.55 12.0499 15.8333 7.99984 15.8333C3.94975 15.8333 0.666504 12.55 0.666504 8.49996ZM8.17191 5.84952C7.86157 5.79629 7.54239 5.85461 7.27093 6.01415C6.99946 6.1737 6.79321 6.42417 6.68872 6.7212C6.56654 7.06853 6.18593 7.25105 5.8386 7.12886C5.49128 7.00668 5.30876 6.62607 5.43094 6.27875C5.63993 5.68467 6.05241 5.18373 6.59535 4.86464C7.13828 4.54555 7.77663 4.42891 8.39732 4.53538C9.01802 4.64184 9.581 4.96454 9.98657 5.44633C10.3921 5.92801 10.614 6.53763 10.6132 7.16725C10.6129 8.18749 9.85646 8.86123 9.3163 9.22134C9.02588 9.41496 8.7402 9.55732 8.52976 9.65085C8.42359 9.69803 8.33419 9.73384 8.26977 9.75838C8.2375 9.77067 8.21134 9.7802 8.1923 9.78697L8.16915 9.79508L8.16177 9.7976L8.15917 9.79847L8.15815 9.79882C8.15815 9.79882 8.16915 9.79508 8.15732 9.7991C7.80802 9.91553 7.43048 9.72675 7.31404 9.37746C7.19769 9.0284 7.38614 8.65112 7.73498 8.53442L7.74562 8.53068C7.75588 8.52704 7.77269 8.52094 7.79511 8.5124C7.84006 8.49527 7.90691 8.46858 7.98824 8.43243C8.1528 8.3593 8.36712 8.25166 8.5767 8.11194C9.03643 7.80545 9.27983 7.4794 9.27983 7.16664V7.16565C9.2803 6.85077 9.16932 6.54588 8.96654 6.30499C8.76375 6.0641 8.48226 5.90275 8.17191 5.84952ZM7.99984 11.1666C7.63165 11.1666 7.33317 11.4651 7.33317 11.8333C7.33317 12.2015 7.63165 12.5 7.99984 12.5H8.0065C8.37469 12.5 8.67317 12.2015 8.67317 11.8333C8.67317 11.4651 8.37469 11.1666 8.0065 11.1666H7.99984Z" fill="#E5E7EB"/>
</svg>
