<svg width="24" height="24" viewBox="0 0 24 24" fill="none" xmlns="http://www.w3.org/2000/svg">
<path d="M1 6L0.503861 5.13176C0.192286 5.3098 0 5.64114 0 6H1ZM1 22H0C0 22.3565 0.189758 22.686 0.498073 22.8649C0.806388 23.0438 1.18664 23.0451 1.49614 22.8682L1 22ZM16 22L15.5528 22.8944C15.8518 23.044 16.2058 23.0341 16.4961 22.8682L16 22ZM23 18L23.4961 18.8682C23.8077 18.6902 24 18.3589 24 18H23ZM23 2H24C24 1.64353 23.8102 1.31401 23.5019 1.13509C23.1936 0.956168 22.8134 0.954898 22.5039 1.13176L23 2ZM8 2L8.44721 1.10557C8.14816 0.956046 7.79416 0.965871 7.50386 1.13176L8 2ZM0 6V22H2V6H0ZM1.49614 22.8682L8.49614 18.8682L7.50386 17.1318L0.503861 21.1318L1.49614 22.8682ZM7.55279 18.8944L15.5528 22.8944L16.4472 21.1056L8.44721 17.1056L7.55279 18.8944ZM16.4961 22.8682L23.4961 18.8682L22.5039 17.1318L15.5039 21.1318L16.4961 22.8682ZM24 18V2H22V18H24ZM22.5039 1.13176L15.5039 5.13176L16.4961 6.86824L23.4961 2.86824L22.5039 1.13176ZM16.4472 5.10557L8.44721 1.10557L7.55279 2.89443L15.5528 6.89443L16.4472 5.10557ZM7.50386 1.13176L0.503861 5.13176L1.49614 6.86824L8.49614 2.86824L7.50386 1.13176ZM7 2V18H9V2H7ZM15 6V22H17V6H15Z" fill="#395E95"/>
</svg>
