<svg width="24" height="24" viewBox="0 0 24 24" fill="none" xmlns="http://www.w3.org/2000/svg">
<path d="M17 2C17 1.44772 16.5523 1 16 1C15.4477 1 15 1.44772 15 2H17ZM15 6C15 6.55228 15.4477 7 16 7C16.5523 7 17 6.55228 17 6H15ZM9 2C9 1.44772 8.55228 1 8 1C7.44772 1 7 1.44772 7 2H9ZM7 6C7 6.55228 7.44772 7 8 7C8.55228 7 9 6.55228 9 6H7ZM3 9C2.44772 9 2 9.44772 2 10C2 10.5523 2.44772 11 3 11V9ZM21 11C21.5523 11 22 10.5523 22 10C22 9.44772 21.5523 9 21 9V11ZM5 5H19V3H5V5ZM19 5C19.5523 5 20 5.44771 20 6H22C22 4.34315 20.6569 3 19 3V5ZM20 6V20H22V6H20ZM20 20C20 20.5523 19.5523 21 19 21V23C20.6569 23 22 21.6569 22 20H20ZM19 21H5V23H19V21ZM5 21C4.44771 21 4 20.5523 4 20H2C2 21.6569 3.34315 23 5 23V21ZM4 20V6H2V20H4ZM4 6C4 5.44772 4.44772 5 5 5V3C3.34315 3 2 4.34315 2 6H4ZM15 2V6H17V2H15ZM7 2V6H9V2H7ZM3 11H21V9H3V11Z" fill="#395E95"/>
</svg>
