<svg width="40" height="40" viewBox="0 0 40 40" fill="none" xmlns="http://www.w3.org/2000/svg">
<path d="M38.125 28.75H1.875C1.53 28.75 1.25 28.47 1.25 28.125V8.125C1.25 7.78 1.53 7.5 1.875 7.5H38.125C38.47 7.5 38.75 7.78 38.75 8.125V28.125C38.75 28.47 38.47 28.75 38.125 28.75ZM2.5 27.5H37.5V8.75H2.5V27.5Z" fill="#395E95"/>
<path d="M35 26.25H34.375C34.03 26.25 33.75 25.97 33.75 25.625V10.625C33.75 10.28 34.03 10 34.375 10H35C35.345 10 35.625 10.28 35.625 10.625C35.625 10.97 35.345 11.25 35 11.25V25C35.345 25 35.625 25.28 35.625 25.625C35.625 25.97 35.345 26.25 35 26.25Z" fill="#395E95"/>
<path d="M31.25 26.25H30.625C30.28 26.25 30 25.97 30 25.625V10.625C30 10.28 30.28 10 30.625 10H31.25C31.595 10 31.875 10.28 31.875 10.625C31.875 10.97 31.595 11.25 31.25 11.25V25C31.595 25 31.875 25.28 31.875 25.625C31.875 25.97 31.595 26.25 31.25 26.25Z" fill="#395E95"/>
<path d="M27.5 26.25H26.875C26.53 26.25 26.25 25.97 26.25 25.625V10.625C26.25 10.28 26.53 10 26.875 10H27.5C27.845 10 28.125 10.28 28.125 10.625C28.125 10.97 27.845 11.25 27.5 11.25V25C27.845 25 28.125 25.28 28.125 25.625C28.125 25.97 27.845 26.25 27.5 26.25Z" fill="#395E95"/>
<path d="M23.75 26.25H23.125C22.78 26.25 22.5 25.97 22.5 25.625V10.625C22.5 10.28 22.78 10 23.125 10H23.75C24.095 10 24.375 10.28 24.375 10.625C24.375 10.97 24.095 11.25 23.75 11.25V25C24.095 25 24.375 25.28 24.375 25.625C24.375 25.97 24.095 26.25 23.75 26.25Z" fill="#395E95"/>
<path d="M20 26.25H19.375C19.03 26.25 18.75 25.97 18.75 25.625V10.625C18.75 10.28 19.03 10 19.375 10H20C20.345 10 20.625 10.28 20.625 10.625C20.625 10.97 20.345 11.25 20 11.25V25C20.345 25 20.625 25.28 20.625 25.625C20.625 25.97 20.345 26.25 20 26.25Z" fill="#395E95"/>
<path d="M16.25 26.25H15.625C15.28 26.25 15 25.97 15 25.625V10.625C15 10.28 15.28 10 15.625 10H16.25C16.595 10 16.875 10.28 16.875 10.625C16.875 10.97 16.595 11.25 16.25 11.25V25C16.595 25 16.875 25.28 16.875 25.625C16.875 25.97 16.595 26.25 16.25 26.25Z" fill="#395E95"/>
<path d="M12.5 26.25H11.875C11.53 26.25 11.25 25.97 11.25 25.625V10.625C11.25 10.28 11.53 10 11.875 10H12.5C12.845 10 13.125 10.28 13.125 10.625C13.125 10.97 12.845 11.25 12.5 11.25V25C12.845 25 13.125 25.28 13.125 25.625C13.125 25.97 12.845 26.25 12.5 26.25Z" fill="#395E95"/>
<path d="M8.75 26.25H8.125C7.78 26.25 7.5 25.97 7.5 25.625V10.625C7.5 10.28 7.78 10 8.125 10H8.75C9.095 10 9.375 10.28 9.375 10.625C9.375 10.97 9.095 11.25 8.75 11.25V25C9.095 25 9.375 25.28 9.375 25.625C9.375 25.97 9.095 26.25 8.75 26.25Z" fill="#395E95"/>
<path d="M5 26.25H4.375C4.03 26.25 3.75 25.97 3.75 25.625V10.625C3.75 10.28 4.03 10 4.375 10H5C5.345 10 5.625 10.28 5.625 10.625C5.625 10.97 5.345 11.25 5 11.25V25C5.345 25 5.625 25.28 5.625 25.625C5.625 25.97 5.345 26.25 5 26.25Z" fill="#395E95"/>
<path d="M38.125 37.5H1.875C1.53 37.5 1.25 37.22 1.25 36.875C1.25 36.53 1.53 36.25 1.875 36.25H38.125C38.47 36.25 38.75 36.53 38.75 36.875C38.75 37.22 38.47 37.5 38.125 37.5Z" fill="#395E95"/>
<path d="M36.875 38.75C36.53 38.75 36.25 38.47 36.25 38.125V37.5H33.75V38.125C33.75 38.47 33.47 38.75 33.125 38.75C32.78 38.75 32.5 38.47 32.5 38.125V36.875C32.5 36.53 32.78 36.25 33.125 36.25H36.875C37.22 36.25 37.5 36.53 37.5 36.875V38.125C37.5 38.47 37.22 38.75 36.875 38.75Z" fill="#395E95"/>
<path d="M29.375 38.75C29.03 38.75 28.75 38.47 28.75 38.125V37.5H26.25V38.125C26.25 38.47 25.97 38.75 25.625 38.75C25.28 38.75 25 38.47 25 38.125V36.875C25 36.53 25.28 36.25 25.625 36.25H29.375C29.72 36.25 30 36.53 30 36.875V38.125C30 38.47 29.72 38.75 29.375 38.75Z" fill="#395E95"/>
<path d="M21.875 38.75C21.53 38.75 21.25 38.47 21.25 38.125V37.5H18.75V38.125C18.75 38.47 18.47 38.75 18.125 38.75C17.78 38.75 17.5 38.47 17.5 38.125V36.875C17.5 36.53 17.78 36.25 18.125 36.25H21.875C22.22 36.25 22.5 36.53 22.5 36.875V38.125C22.5 38.47 22.22 38.75 21.875 38.75Z" fill="#395E95"/>
<path d="M14.375 38.75C14.03 38.75 13.75 38.47 13.75 38.125V37.5H11.25V38.125C11.25 38.47 10.97 38.75 10.625 38.75C10.28 38.75 10 38.47 10 38.125V36.875C10 36.53 10.28 36.25 10.625 36.25H14.375C14.72 36.25 15 36.53 15 36.875V38.125C15 38.47 14.72 38.75 14.375 38.75Z" fill="#395E95"/>
<path d="M6.875 38.75C6.53 38.75 6.25 38.47 6.25 38.125V37.5H3.75V38.125C3.75 38.47 3.47 38.75 3.125 38.75C2.78 38.75 2.5 38.47 2.5 38.125V36.875C2.5 36.53 2.78 36.25 3.125 36.25H6.875C7.22 36.25 7.5 36.53 7.5 36.875V38.125C7.5 38.47 7.22 38.75 6.875 38.75Z" fill="#395E95"/>
<path d="M10.625 35.625C9.59125 35.625 8.75 34.7838 8.75 33.75C8.75 32.7162 9.59125 31.875 10.625 31.875C11.6588 31.875 12.5 32.7162 12.5 33.75C12.5 34.7838 11.6588 35.625 10.625 35.625ZM10.625 33.125C10.2812 33.125 10 33.405 10 33.75C10 34.095 10.2812 34.375 10.625 34.375C10.9688 34.375 11.25 34.095 11.25 33.75C11.25 33.405 10.9688 33.125 10.625 33.125Z" fill="#395E95"/>
<path d="M5.625 35.625C4.59125 35.625 3.75 34.7838 3.75 33.75C3.75 32.7162 4.59125 31.875 5.625 31.875C6.65875 31.875 7.5 32.7162 7.5 33.75C7.5 34.7838 6.65875 35.625 5.625 35.625ZM5.625 33.125C5.28125 33.125 5 33.405 5 33.75C5 34.095 5.28125 34.375 5.625 34.375C5.96875 34.375 6.25 34.095 6.25 33.75C6.25 33.405 5.96875 33.125 5.625 33.125Z" fill="#395E95"/>
<path d="M34.375 35.625C33.3412 35.625 32.5 34.7838 32.5 33.75C32.5 32.7162 33.3412 31.875 34.375 31.875C35.4088 31.875 36.25 32.7162 36.25 33.75C36.25 34.7838 35.4088 35.625 34.375 35.625ZM34.375 33.125C34.0312 33.125 33.75 33.405 33.75 33.75C33.75 34.095 34.0312 34.375 34.375 34.375C34.7188 34.375 35 34.095 35 33.75C35 33.405 34.7188 33.125 34.375 33.125Z" fill="#395E95"/>
<path d="M29.375 35.625C28.3412 35.625 27.5 34.7838 27.5 33.75C27.5 32.7162 28.3412 31.875 29.375 31.875C30.4088 31.875 31.25 32.7162 31.25 33.75C31.25 34.7838 30.4088 35.625 29.375 35.625ZM29.375 33.125C29.0312 33.125 28.75 33.405 28.75 33.75C28.75 34.095 29.0312 34.375 29.375 34.375C29.7188 34.375 30 34.095 30 33.75C30 33.405 29.7188 33.125 29.375 33.125Z" fill="#395E95"/>
<path d="M38.125 31.25H24.375C24.03 31.25 23.75 30.97 23.75 30.625C23.75 30.28 24.03 30 24.375 30H38.125C38.47 30 38.75 30.28 38.75 30.625C38.75 30.97 38.47 31.25 38.125 31.25Z" fill="#395E95"/>
<path d="M15.625 31.25H1.875C1.53 31.25 1.25 30.97 1.25 30.625C1.25 30.28 1.53 30 1.875 30H15.625C15.97 30 16.25 30.28 16.25 30.625C16.25 30.97 15.97 31.25 15.625 31.25Z" fill="#395E95"/>
<path d="M25 33.75H15C14.7638 33.75 14.5475 33.6163 14.4413 33.405L13.3638 31.25H3.125C2.78 31.25 2.5 30.97 2.5 30.625V28.125C2.5 27.78 2.78 27.5 3.125 27.5H36.875C37.22 27.5 37.5 27.78 37.5 28.125V30.625C37.5 30.97 37.22 31.25 36.875 31.25H26.6362L25.56 33.405C25.4525 33.6163 25.2362 33.75 25 33.75ZM15.3862 32.5H24.615L25.6912 30.345C25.7975 30.1337 26.0138 30 26.25 30H36.25V28.75H3.75V30H13.75C13.9862 30 14.2025 30.1337 14.3087 30.345L15.3862 32.5Z" fill="#395E95"/>
</svg>
