<svg width="30" height="30" viewBox="0 0 30 30" fill="none" xmlns="http://www.w3.org/2000/svg">
<path d="M15 26.25C21.2132 26.25 26.25 21.2132 26.25 15C26.25 8.7868 21.2132 3.75 15 3.75C8.7868 3.75 3.75 8.7868 3.75 15C3.75 21.2132 8.7868 26.25 15 26.25Z" stroke="#395E95" stroke-width="2" stroke-miterlimit="10" stroke-linecap="round" stroke-linejoin="round"/>
<path d="M19.4571 13.2071C19.8476 12.8166 19.8476 12.1834 19.4571 11.7929C19.0666 11.4024 18.4334 11.4024 18.0429 11.7929L19.4571 13.2071ZM13.75 17.5L13.0429 18.2071C13.4334 18.5976 14.0666 18.5976 14.4571 18.2071L13.75 17.5ZM11.9571 14.2929C11.5666 13.9024 10.9334 13.9024 10.5429 14.2929C10.1524 14.6834 10.1524 15.3166 10.5429 15.7071L11.9571 14.2929ZM18.0429 11.7929L13.0429 16.7929L14.4571 18.2071L19.4571 13.2071L18.0429 11.7929ZM14.4571 16.7929L11.9571 14.2929L10.5429 15.7071L13.0429 18.2071L14.4571 16.7929Z" fill="#395E95"/>
</svg>
