<svg width="30" height="30" viewBox="0 0 30 30" fill="none" xmlns="http://www.w3.org/2000/svg">
<path d="M6.25 26.25L23.75 26.25C24.4404 26.25 25 25.6904 25 25L25 12.5C25 11.8096 24.4404 11.25 23.75 11.25L6.25 11.25C5.55964 11.25 5 11.8096 5 12.5L5 25C5 25.6904 5.55964 26.25 6.25 26.25Z" stroke="#395E95" stroke-width="2" stroke-linecap="round" stroke-linejoin="round"/>
<path d="M10.25 11.25C10.25 11.8023 10.6977 12.25 11.25 12.25C11.8023 12.25 12.25 11.8023 12.25 11.25H10.25ZM16.7538 5.61717C17.1215 6.02927 17.7537 6.06527 18.1658 5.69759C18.5779 5.32991 18.6139 4.69777 18.2462 4.28567L16.7538 5.61717ZM12.25 11.25V7.65H10.25V11.25H12.25ZM12.25 7.65C12.25 5.97949 13.4938 4.75 14.8796 4.75V2.75C12.2563 2.75 10.25 5.01269 10.25 7.65H12.25ZM14.8796 4.75C15.6005 4.75 16.2663 5.07075 16.7538 5.61717L18.2462 4.28567C17.4124 3.35122 16.2186 2.75 14.8796 2.75V4.75Z" fill="#395E95"/>
</svg>
