<svg width="30" height="30" viewBox="0 0 30 30" fill="none" xmlns="http://www.w3.org/2000/svg">
<path d="M11.8786 5.32152L10.9501 5.69291V5.69291L11.8786 5.32152ZM13.1964 8.6161L14.1249 8.24471L13.1964 8.6161ZM12.7958 11.145L13.564 11.7852L12.7958 11.145ZM12.0866 11.9961L12.8548 12.6363L12.0866 11.9961ZM12.2394 15.3644L11.5322 16.0715H11.5322L12.2394 15.3644ZM14.6357 17.7607L15.3428 17.0535L14.6357 17.7607ZM18.0039 17.9134L17.3637 17.1452L18.0039 17.9134ZM18.855 17.2042L19.4951 17.9724L19.4951 17.9724L18.855 17.2042ZM21.3839 16.8036L21.0125 17.732L21.3839 16.8036ZM24.6785 18.1214L25.0499 17.1929H25.0499L24.6785 18.1214ZM6.11842 4.75H9.55742V2.75H6.11842V4.75ZM10.9501 5.69291L12.268 8.98749L14.1249 8.24471L12.8071 4.95013L10.9501 5.69291ZM12.0276 10.5049L11.3183 11.3559L12.8548 12.6363L13.564 11.7852L12.0276 10.5049ZM11.5322 16.0715L13.9285 18.4678L15.3428 17.0535L12.9465 14.6572L11.5322 16.0715ZM18.6441 18.6817L19.4951 17.9724L18.2148 16.436L17.3637 17.1452L18.6441 18.6817ZM21.0125 17.732L24.3071 19.0499L25.0499 17.1929L21.7553 15.8751L21.0125 17.732ZM25.25 20.4426V23.8816H27.25V20.4426H25.25ZM23.8816 25.25C13.3155 25.25 4.75 16.6845 4.75 6.11842H2.75C2.75 17.7891 12.2109 27.25 23.8816 27.25V25.25ZM25.25 23.8816C25.25 24.6373 24.6373 25.25 23.8816 25.25V27.25C25.7419 27.25 27.25 25.7419 27.25 23.8816H25.25ZM24.3071 19.0499C24.8766 19.2777 25.25 19.8292 25.25 20.4426H27.25C27.25 19.0114 26.3787 17.7244 25.0499 17.1929L24.3071 19.0499ZM19.4951 17.9724C19.9184 17.6197 20.501 17.5274 21.0125 17.732L21.7553 15.8751C20.5617 15.3976 19.2024 15.613 18.2148 16.436L19.4951 17.9724ZM13.9285 18.4678C15.2086 19.7478 17.2534 19.8405 18.6441 18.6817L17.3637 17.1452C16.7677 17.6419 15.8913 17.6021 15.3428 17.0535L13.9285 18.4678ZM11.3183 11.3559C10.1595 12.7466 10.2522 14.7914 11.5322 16.0715L12.9465 14.6572C12.3979 14.1087 12.3581 13.2323 12.8548 12.6363L11.3183 11.3559ZM12.268 8.98749C12.4726 9.49904 12.3803 10.0816 12.0276 10.5049L13.564 11.7852C14.387 10.7976 14.6024 9.43833 14.1249 8.24471L12.268 8.98749ZM9.55742 4.75C10.1708 4.75 10.7223 5.12343 10.9501 5.69291L12.8071 4.95013C12.2756 3.62133 10.9886 2.75 9.55742 2.75V4.75ZM6.11842 2.75C4.25809 2.75 2.75 4.25809 2.75 6.11842H4.75C4.75 5.36266 5.36266 4.75 6.11842 4.75V2.75Z" fill="#395E95"/>
</svg>
